<svg width="24" height="24" viewBox="0 0 24 24" fill="none" xmlns="http://www.w3.org/2000/svg">
<rect width="24" height="24" rx="4" fill="#0DB473"/>
<path d="M17.6185 12.9249L13.7852 16.7583L12.7085 15.6816C13.0804 15.6952 13.4511 15.6318 13.7973 15.4952C14.1435 15.3587 14.4577 15.1521 14.7202 14.8883L17.1518 12.4583L17.6185 12.9249Z" fill="white"/>
<path d="M13.7148 7.83322C13.682 7.83308 13.65 7.82329 13.6228 7.80508C13.5956 7.78686 13.5743 7.76102 13.5617 7.73078C13.5491 7.70055 13.5456 7.66727 13.5518 7.63509C13.558 7.60292 13.5735 7.57328 13.5965 7.54988L14.2531 6.89322C14.2681 6.87577 14.2865 6.8616 14.3071 6.8516C14.3278 6.84159 14.3503 6.83597 14.3733 6.83509C14.3963 6.8342 14.4191 6.83807 14.4405 6.84645C14.4619 6.85482 14.4813 6.86753 14.4976 6.88378C14.5138 6.90002 14.5265 6.91944 14.5349 6.94083C14.5433 6.96222 14.5472 6.98511 14.5463 7.00806C14.5454 7.03101 14.5398 7.05354 14.5298 7.07421C14.5198 7.09489 14.5056 7.11328 14.4881 7.12822L13.8331 7.79155C13.8006 7.82032 13.7582 7.83527 13.7148 7.83322Z" fill="white"/>
<path d="M14.467 9.66659C14.4338 9.66678 14.4014 9.65711 14.3739 9.63881C14.3463 9.62051 14.3248 9.59441 14.3121 9.56384C14.2994 9.53326 14.2961 9.4996 14.3026 9.46714C14.3091 9.43469 14.3251 9.4049 14.3486 9.38159L15.0003 8.72992C15.0158 8.71438 15.0343 8.70206 15.0546 8.69365C15.0749 8.68524 15.0966 8.68091 15.1186 8.68091C15.1406 8.68091 15.1624 8.68524 15.1827 8.69365C15.203 8.70206 15.2214 8.71438 15.237 8.72992C15.2525 8.74546 15.2648 8.76391 15.2732 8.78422C15.2816 8.80452 15.286 8.82628 15.286 8.84826C15.286 8.87023 15.2816 8.89199 15.2732 8.9123C15.2648 8.9326 15.2525 8.95105 15.237 8.96659L14.5803 9.62326C14.5493 9.65143 14.5088 9.6669 14.467 9.66659Z" fill="white"/>
<path d="M15.1669 11.5566C15.134 11.5565 15.1018 11.5466 15.0745 11.5282C15.0471 11.5097 15.0259 11.4836 15.0134 11.4531C15.0009 11.4226 14.9978 11.3891 15.0043 11.3568C15.0109 11.3245 15.0269 11.2949 15.0503 11.2716L15.7053 10.615C15.7208 10.5994 15.7392 10.587 15.7595 10.5785C15.7798 10.57 15.8016 10.5657 15.8236 10.5657C15.8456 10.5657 15.8674 10.57 15.8877 10.5785C15.908 10.587 15.9265 10.5994 15.9419 10.615C15.973 10.6462 15.9904 10.6884 15.9904 10.7325C15.9904 10.7765 15.973 10.8187 15.9419 10.85L15.2836 11.5C15.2689 11.5167 15.2511 11.5304 15.231 11.5401C15.211 11.5499 15.1892 11.5555 15.1669 11.5566Z" fill="white"/>
<path d="M17.0852 12.0532L14.4885 14.6482C14.2318 14.9072 13.9189 15.1037 13.5742 15.2224C13.2294 15.3412 12.8619 15.3791 12.5002 15.3332L12.0318 15.2716C11.8297 15.2453 11.6242 15.2658 11.4312 15.3314C11.2382 15.397 11.0628 15.5059 10.9185 15.6499L10.2185 16.3499C10.2035 16.3332 6.34683 12.4682 6.3335 12.4682L6.34516 12.4566C6.52166 12.6247 6.74359 12.7375 6.98349 12.7808C7.2234 12.8242 7.47075 12.7962 7.69494 12.7005C7.91913 12.6047 8.11031 12.4453 8.24484 12.242C8.37937 12.0386 8.45133 11.8003 8.45183 11.5566C8.45266 11.5405 8.45266 11.5243 8.45183 11.5082C8.46734 11.5099 8.48298 11.5099 8.4985 11.5082C8.66622 11.5081 8.8322 11.4742 8.98649 11.4084C9.14079 11.3427 9.28023 11.2465 9.39647 11.1256C9.51271 11.0047 9.60336 10.8615 9.66299 10.7048C9.72262 10.548 9.75 10.3808 9.7435 10.2132C9.75901 10.2149 9.77465 10.2149 9.79016 10.2132C9.9581 10.2134 10.1243 10.1795 10.2788 10.1138C10.4334 10.048 10.573 9.95164 10.6893 9.8305C10.8056 9.70936 10.8962 9.56595 10.9556 9.40888C11.0151 9.25182 11.0421 9.08435 11.0352 8.91656C11.0507 8.91821 11.0663 8.91821 11.0818 8.91656C11.3256 8.91651 11.564 8.84489 11.7675 8.71058C11.971 8.57626 12.1305 8.38517 12.2264 8.161C12.3222 7.93684 12.3501 7.68947 12.3066 7.44958C12.2632 7.20969 12.1502 6.98784 11.9818 6.81156L13.3335 5.46823C13.4237 5.37812 13.5317 5.30789 13.6506 5.26204C13.7696 5.2162 13.8968 5.19576 14.0241 5.20204C14.1514 5.20832 14.276 5.24118 14.3899 5.2985C14.5037 5.35583 14.6043 5.43635 14.6852 5.53489C14.8273 5.71804 14.8969 5.94719 14.8806 6.17845C14.8643 6.40971 14.7633 6.62683 14.5968 6.78823L14.3718 7.01656C14.4623 6.92665 14.5705 6.8566 14.6895 6.81089C14.8086 6.76517 14.9358 6.7448 15.0632 6.75107C15.1906 6.75735 15.3152 6.79013 15.4292 6.84732C15.5432 6.90452 15.644 6.98486 15.7252 7.08323C15.8662 7.26633 15.9349 7.49488 15.9183 7.72537C15.9017 7.95587 15.8009 8.17221 15.6352 8.33323L15.1235 8.84489C15.2135 8.75455 15.3215 8.68411 15.4405 8.63811C15.5595 8.59212 15.6868 8.5716 15.8141 8.57789C15.9415 8.58417 16.0662 8.61711 16.1801 8.67459C16.2939 8.73207 16.3945 8.8128 16.4752 8.91156C16.6181 9.09468 16.6882 9.32427 16.6719 9.55602C16.6556 9.78777 16.554 10.0053 16.3868 10.1666L15.8235 10.7299C15.9138 10.6403 16.0217 10.5705 16.1405 10.525C16.2592 10.4794 16.3862 10.4592 16.5132 10.4654C16.6402 10.4717 16.7646 10.5044 16.8782 10.5614C16.9919 10.6184 17.0925 10.6985 17.1735 10.7966C17.3166 10.9799 17.3867 11.2098 17.3704 11.4418C17.3541 11.6739 17.2525 11.8917 17.0852 12.0532Z" fill="white"/>
<path d="M9.97404 16.5739L6.10675 12.7066C5.98766 12.5875 5.79457 12.5875 5.67548 12.7066L4.25441 14.1277C4.13532 14.2468 4.13532 14.4398 4.25441 14.5589L8.1217 18.4262C8.24079 18.5453 8.43388 18.5453 8.55297 18.4262L9.97404 17.0052C10.0931 16.8861 10.0931 16.693 9.97404 16.5739Z" fill="white"/>
<path d="M19.7467 14.5414L18.3334 13.1214C18.3051 13.0929 18.2715 13.0702 18.2345 13.0547C18.1974 13.0392 18.1577 13.0312 18.1175 13.0312C18.0774 13.0312 18.0376 13.0392 18.0006 13.0547C17.9635 13.0702 17.9299 13.0929 17.9017 13.1214L14.035 16.9881C14.0064 17.0163 13.9838 17.0499 13.9683 17.087C13.9528 17.124 13.9448 17.1638 13.9448 17.2039C13.9448 17.2441 13.9528 17.2839 13.9683 17.3209C13.9838 17.358 14.0064 17.3916 14.035 17.4198L15.4484 18.8331C15.4766 18.8617 15.5102 18.8844 15.5472 18.8999C15.5843 18.9153 15.624 18.9233 15.6642 18.9233C15.7043 18.9233 15.7441 18.9153 15.7811 18.8999C15.8182 18.8844 15.8518 18.8617 15.88 18.8331L19.7467 14.9664C19.8024 14.9097 19.8336 14.8334 19.8336 14.7539C19.8336 14.6745 19.8024 14.5982 19.7467 14.5414ZM15.745 17.6664C15.6382 17.6664 15.5338 17.6348 15.445 17.5754C15.3562 17.5161 15.287 17.4318 15.2461 17.3331C15.2053 17.2344 15.1946 17.1258 15.2154 17.0211C15.2362 16.9163 15.2877 16.8201 15.3632 16.7446C15.4387 16.6691 15.5349 16.6177 15.6397 16.5968C15.7444 16.576 15.853 16.5867 15.9517 16.6276C16.0503 16.6684 16.1347 16.7376 16.194 16.8264C16.2534 16.9152 16.285 17.0196 16.285 17.1264C16.285 17.2697 16.2281 17.407 16.1269 17.5083C16.0256 17.6096 15.8882 17.6664 15.745 17.6664Z" fill="white"/>
<path d="M11.7301 8.33322C11.6453 8.41803 11.5446 8.48531 11.4338 8.53121C11.323 8.57711 11.2042 8.60074 11.0843 8.60074C10.9643 8.60074 10.8456 8.57711 10.7348 8.53121C10.6239 8.48531 10.5233 8.41803 10.4385 8.33322L8.74012 6.62822C8.65563 6.54308 8.58875 6.44213 8.54328 6.33114C8.49781 6.22015 8.47464 6.10129 8.4751 5.98135C8.47604 5.73912 8.57317 5.50718 8.74512 5.33655C8.91707 5.16593 9.14975 5.0706 9.39199 5.07154C9.63422 5.07248 9.86616 5.1696 10.0368 5.34155C10.0295 5.35077 10.0233 5.36085 10.0185 5.37155C9.9423 5.52664 9.91741 5.70192 9.94737 5.87207C9.97732 6.04223 10.0606 6.19846 10.1851 6.31822L10.7168 6.85322C10.8629 6.99856 11.0436 7.10433 11.2419 7.1606C11.4401 7.21688 11.6494 7.22179 11.8501 7.17489C11.9677 7.35186 12.0201 7.56425 11.9982 7.77561C11.9763 7.98697 11.8815 8.18411 11.7301 8.33322Z" fill="white"/>
<path d="M10.4383 9.61828C10.3537 9.7035 10.2531 9.77113 10.1423 9.81728C10.0314 9.86343 9.91253 9.88719 9.79246 9.88719C9.6724 9.88719 9.55352 9.86343 9.44267 9.81728C9.33183 9.77113 9.23122 9.7035 9.14663 9.61828C7.97996 8.45162 8.22163 8.69662 7.70163 8.17329C7.54197 7.99808 7.45669 7.76767 7.46379 7.53073C7.47089 7.2938 7.56983 7.06891 7.7397 6.90359C7.90957 6.73827 8.13706 6.64546 8.3741 6.64478C8.61113 6.6441 8.83915 6.7356 9.00996 6.89995L10.4383 8.33329C10.6068 8.50471 10.7012 8.73544 10.7012 8.97579C10.7012 9.21613 10.6068 9.44686 10.4383 9.61828Z" fill="white"/>
<path d="M9.14655 10.9098C8.97499 11.0812 8.7424 11.1775 8.49989 11.1775C8.25738 11.1775 8.02479 11.0812 7.85322 10.9098L6.68656 9.73481C6.51615 9.56264 6.42113 9.32983 6.42238 9.0876C6.42363 8.84537 6.52105 8.61355 6.69322 8.44315C6.86539 8.27275 7.0982 8.17772 7.34044 8.17897C7.58267 8.18022 7.81449 8.27764 7.98489 8.44981L9.15156 9.61648C9.23629 9.70165 9.30339 9.8027 9.34901 9.91385C9.39463 10.025 9.41788 10.144 9.41741 10.2642C9.41695 10.3843 9.39278 10.5032 9.3463 10.614C9.29983 10.7248 9.23195 10.8253 9.14655 10.9098Z" fill="white"/>
<path d="M7.85323 12.2015C7.76842 12.2863 7.66773 12.3536 7.55692 12.3995C7.4461 12.4454 7.32734 12.469 7.20739 12.469C7.08745 12.469 6.96868 12.4454 6.85787 12.3995C6.74706 12.3536 6.64637 12.2863 6.56156 12.2015L6.06156 11.7015C5.89005 11.5302 5.79361 11.2978 5.79346 11.0554C5.7933 10.813 5.88944 10.5805 6.06073 10.409C6.23201 10.2375 6.46441 10.141 6.7068 10.1409C6.94919 10.1407 7.18172 10.2369 7.35323 10.4081L7.85323 10.9081C7.93869 10.9928 8.00653 11.0935 8.05283 11.2045C8.09913 11.3155 8.12297 11.4345 8.12297 11.5548C8.12297 11.6751 8.09913 11.7941 8.05283 11.9051C8.00653 12.0161 7.93869 12.1169 7.85323 12.2015Z" fill="white"/>
<path d="M12.8466 5.48811L11.4666 6.86644C11.2696 6.84415 11.0858 6.75607 10.9449 6.61644L10.4149 6.08311C10.3518 6.01272 10.3099 5.92588 10.2941 5.83264C10.2783 5.73941 10.2893 5.64362 10.3258 5.55637C10.3623 5.46913 10.4227 5.39402 10.5002 5.33975C10.5776 5.28548 10.6688 5.25428 10.7633 5.24977H12.4299C12.5147 5.24691 12.5985 5.26769 12.6721 5.30978C12.7457 5.35187 12.8061 5.41362 12.8466 5.48811Z" fill="white"/>
</svg>
