<svg width="24" height="24" viewBox="0 0 24 24" fill="none" xmlns="http://www.w3.org/2000/svg">
<rect width="24" height="24" rx="4" fill="#3A559F"/>
<path d="M17.1419 12.1055L16.8201 14.8927C16.8067 15.0199 16.7471 15.1378 16.6526 15.2239C16.5581 15.31 16.4352 15.3585 16.3073 15.36H13.3982L13.3837 23.6236C13.3847 23.7216 13.3471 23.8159 13.279 23.8864C13.211 23.9568 13.118 23.9976 13.0201 24H10.0728C10.0238 24 9.97527 23.9902 9.93018 23.971C9.88508 23.9518 9.84433 23.9237 9.81037 23.8884C9.7764 23.8531 9.74993 23.8113 9.73253 23.7654C9.71514 23.7196 9.70718 23.6708 9.70914 23.6218V15.36H7.52732C7.4588 15.3593 7.39108 15.3451 7.32804 15.3182C7.26501 15.2913 7.20788 15.2523 7.15993 15.2033C7.11198 15.1544 7.07415 15.0964 7.04859 15.0328C7.02303 14.9693 7.01024 14.9013 7.01096 14.8327L7.00005 12.0455C6.99909 11.9767 7.01168 11.9084 7.03711 11.8445C7.06254 11.7806 7.10031 11.7223 7.14826 11.673C7.19621 11.6237 7.25341 11.5844 7.31657 11.5572C7.37974 11.53 7.44765 11.5155 7.51641 11.5145H9.70914V8.82364C9.70914 5.7 11.5637 4 14.2837 4H16.5128C16.5817 4.00071 16.6498 4.01502 16.7132 4.04211C16.7766 4.0692 16.834 4.10854 16.8821 4.15786C16.9302 4.20719 16.9682 4.26553 16.9937 4.32955C17.0193 4.39356 17.0319 4.46199 17.031 4.53091V6.87636C17.0319 6.94528 17.0193 7.01371 16.9937 7.07773C16.9682 7.14174 16.9302 7.20009 16.8821 7.24941C16.834 7.29874 16.7766 7.33807 16.7132 7.36516C16.6498 7.39225 16.5817 7.40656 16.5128 7.40727H15.1455C13.6673 7.40727 13.3801 8.13455 13.3801 9.18545V11.5145H16.6291C16.703 11.5155 16.7759 11.532 16.8429 11.5631C16.91 11.5942 16.9697 11.6392 17.0181 11.695C17.0665 11.7508 17.1026 11.8162 17.1239 11.887C17.1452 11.9577 17.1514 12.0322 17.1419 12.1055Z" fill="white"/>
</svg>
