<svg width="24" height="24" viewBox="0 0 24 24" fill="none" xmlns="http://www.w3.org/2000/svg">
<rect width="24" height="24" rx="4" fill="#0A0E88"/>
<g clip-path="url(#clip0_6785_85620)">
<path d="M17.179 15.1309H6.51951C6.17497 15.1309 5.89502 14.851 5.89502 14.5064V9.40282C5.89502 9.05827 6.17497 8.77832 6.51951 8.77832H17.179C17.5236 8.77832 17.8035 9.05827 17.8035 9.40282V14.5064C17.8035 14.851 17.5236 15.1309 17.179 15.1309Z" fill="white"/>
<path d="M12.4633 12.1593C12.4202 11.8362 12.2049 11.5563 11.9034 11.4271C11.4942 11.2333 10.9989 11.3625 10.719 11.7286C10.5467 11.9655 10.4606 12.2454 10.5037 12.5469C10.5467 13.0852 11.0205 13.4944 11.5588 13.4729C11.688 13.4729 11.8172 13.4298 11.9465 13.3652C11.9465 13.3436 11.9465 13.3221 11.9465 13.3006C11.9465 13.3221 11.9465 13.3436 11.9465 13.3652C12.3556 13.1068 12.5709 12.6115 12.4633 12.1593Z" fill="url(#paint0_linear_6785_85620)"/>
<path d="M19.9356 9.89808C19.9356 9.38125 19.9356 8.88596 19.9356 8.36914L16.4039 10.8671C16.4039 10.8887 16.4039 10.9102 16.4039 10.9317C16.4255 11.1901 16.3393 11.4485 16.1455 11.6424C15.6718 12.1807 15.2411 12.7406 14.7889 13.279C14.7889 13.279 14.7027 13.3436 14.7243 13.4082C14.7458 13.4512 14.8104 13.4082 14.8535 13.4082H16.3178C16.447 13.4082 16.4901 13.4082 16.4685 13.5589C16.4685 13.7096 16.4685 13.8604 16.4685 14.0111V14.0757L16.4039 14.0973C16.3824 14.0973 16.3393 14.0973 16.3178 14.0973H13.906C13.7552 14.0973 13.7337 14.0973 13.7122 13.9035C13.6906 13.645 13.7768 13.3651 13.9706 13.1713C14.4013 12.676 14.8535 12.1807 15.2411 11.6639L13.1092 13.1713C13.1092 13.4082 13.1092 13.6666 13.1092 13.9035C13.1092 14.1619 13.1092 14.0542 12.9585 14.0542H12.5278C12.4201 14.0542 12.3986 14.0542 12.3986 13.925C12.3986 13.8819 12.3986 13.8173 12.3986 13.7743V13.6881C12.3986 13.6881 12.334 13.6881 12.3124 13.7527C12.1832 13.8389 12.054 13.9035 11.9248 13.9681V18.9856H11.9463C12.1186 19.0071 12.2909 18.9425 12.4416 18.8348L14.1428 17.8442C14.6381 17.5428 15.1334 17.2413 15.6072 16.9183C16.0809 16.5952 16.4901 16.4014 16.9208 16.1215C17.3515 15.8415 17.9113 15.497 18.4712 15.1309C19.0311 14.7648 19.4618 14.5495 19.914 14.2049C20.0002 14.0757 20.0432 13.9465 20.0217 13.7958C20.0217 13.1498 20.0217 12.5253 20.0217 11.8792C20.0217 11.8146 20.0217 11.75 20.0217 11.6854C19.914 11.0179 19.914 10.458 19.9356 9.89808Z" fill="url(#paint1_linear_6785_85620)"/>
<path d="M7.38113 9.68258C7.38113 9.61798 7.38113 9.53184 7.46726 9.51031H8.00562C8.13483 9.51031 8.1779 9.51031 8.1779 9.68258C8.1779 9.85486 8.1779 10.1994 8.1779 10.4578C8.1779 10.5655 8.1779 10.6732 8.1779 10.8024L9.79297 11.9006C9.83604 11.7283 9.90064 11.5776 9.98678 11.4269L10.116 11.2331C10.3529 10.9531 10.6974 10.7593 11.0635 10.6947C11.4942 10.6086 11.9464 10.7378 12.291 11.0392C12.3125 11.0823 12.3556 11.1254 12.4202 11.1469C12.4202 11.0392 12.4202 10.9531 12.4202 10.867C12.4202 10.7808 12.4202 10.7593 12.5278 10.7593H12.9801C13.1093 10.7593 13.1308 10.7593 13.1308 10.91C13.1308 11.6422 13.1308 12.3744 13.1308 13.1281C13.1308 13.1496 13.1308 13.1711 13.1308 13.1927L15.2627 11.6853C15.3058 11.6207 15.3704 11.5561 15.4134 11.513L15.478 11.4269H13.7768C13.7553 11.2331 13.7553 11.0392 13.7768 10.8454C13.7768 10.7378 13.8414 10.7593 13.906 10.7593H14.7889C14.8966 10.7808 15.0043 10.7808 15.1335 10.7593H16.2533C16.3825 10.7593 16.404 10.7593 16.4255 10.867L19.9356 8.36899C19.9356 8.32592 19.9356 8.28285 19.9356 8.26132L19.8495 8.11058C19.8495 7.98137 19.7203 7.89523 19.6126 7.83063C19.3542 7.67989 19.0958 7.50761 18.8589 7.33534C18.6866 7.27074 18.5359 7.1846 18.3852 7.07693C17.8253 6.75391 17.2654 6.40936 16.7055 6.08635C16.5978 6.02175 16.4686 6.00021 16.3394 6.02175C16.2748 6.02175 16.2102 6.02175 16.1456 6.02175L14.7243 6.92619L13.6691 7.55068C13.2815 7.83063 12.8293 8.04597 12.3556 8.17518C11.7526 8.28285 11.1281 8.15364 10.6113 7.83063L10.1375 7.57222L8.95313 6.79698C8.88853 6.77545 8.84546 6.73238 8.78086 6.71085C8.56551 6.53857 8.32864 6.38783 8.07023 6.25862C8.07023 6.17249 7.96255 6.15095 7.91949 6.12942H7.85488C7.83335 6.12942 7.81181 6.12942 7.79028 6.12942C7.618 6.00021 7.40266 6.00021 7.23039 6.12942L6.15367 6.75391L5.9814 6.86159L4.30172 7.85216C4.23712 7.89523 4.15098 7.95984 4.10791 8.02444L7.38113 10.264C7.38113 10.0702 7.38113 9.87639 7.38113 9.68258ZM7.33806 9.96253L7.07965 9.79025L7.33806 9.96253Z" fill="url(#paint2_linear_6785_85620)"/>
<path d="M11.86 14.011C11.2786 14.2263 10.6541 14.0756 10.245 13.6664C9.9004 13.3003 9.72813 12.8266 9.74966 12.3097C9.74966 12.159 9.79273 12.0083 9.81427 11.8791L8.19919 10.7808C8.19919 10.9531 8.19919 11.1254 8.19919 11.2976C8.19919 11.9006 8.19919 12.5036 8.19919 13.085C8.19919 13.1496 8.19919 13.2142 8.19919 13.2573C8.19919 13.3003 8.30686 13.2573 8.34993 13.2573H9.53432V13.9679L7.42396 14.0325C7.42396 13.9679 7.42396 13.9033 7.42396 13.8602C7.42396 12.6543 7.42396 11.4484 7.42396 10.2424L4.10767 8.02441C4.0646 8.08902 4.02153 8.15362 4 8.21822C4 8.21822 4 8.21822 4 8.28283C4 8.60584 4 8.95039 4 9.2734C4 9.31647 4 9.35954 4 9.38108C4 9.46721 4 9.51028 4 9.51028C4 10.6947 4 11.8791 4 13.0634C4 13.1065 4 13.1496 4 13.1927C4 13.5587 4 13.7741 4 13.8602C4 14.054 4.08614 14.2263 4.23688 14.3124C4.40915 14.4416 4.60296 14.5708 4.79677 14.6785C5.03365 14.7862 5.24899 14.9369 5.46433 15.0661C6.11036 15.4538 6.71332 15.8844 7.38089 16.229L7.7039 16.4443L8.80215 17.155C9.10363 17.3488 9.42665 17.521 9.72813 17.6933L10.2234 17.9948L11.537 18.8131C11.6447 18.8992 11.7954 18.9638 11.9246 18.9638V13.9679C11.9031 13.9894 11.8816 14.011 11.86 14.011Z" fill="url(#paint3_linear_6785_85620)"/>
</g>
<defs>
<linearGradient id="paint0_linear_6785_85620" x1="10.4865" y1="12.3839" x2="12.491" y2="12.3839" gradientUnits="userSpaceOnUse">
<stop stop-color="#F77C00"/>
<stop offset="1" stop-color="#FF00E2"/>
</linearGradient>
<linearGradient id="paint1_linear_6785_85620" x1="11.9345" y1="13.6845" x2="19.9997" y2="13.6845" gradientUnits="userSpaceOnUse">
<stop stop-color="#DF0039"/>
<stop offset="1" stop-color="#FF00E2"/>
</linearGradient>
<linearGradient id="paint2_linear_6785_85620" x1="4.10655" y1="9.59082" x2="19.9381" y2="9.59082" gradientUnits="userSpaceOnUse">
<stop stop-color="#F77C00"/>
<stop offset="1" stop-color="#FF00E2"/>
</linearGradient>
<linearGradient id="paint3_linear_6785_85620" x1="4" y1="13.5079" x2="11.9343" y2="13.5079" gradientUnits="userSpaceOnUse">
<stop stop-color="#F26700"/>
<stop offset="1" stop-color="#ED3E1F"/>
</linearGradient>
<clipPath id="clip0_6785_85620">
<rect width="16" height="12.9852" fill="white" transform="translate(4 6)"/>
</clipPath>
</defs>
</svg>
