<svg width="24" height="24" viewBox="0 0 24 24" fill="none" xmlns="http://www.w3.org/2000/svg">
<rect width="24" height="24" rx="4" fill="#E49C06"/>
<path fill-rule="evenodd" clip-rule="evenodd" d="M5 7.51108C5 6.12425 6.12425 5 7.51108 5L7.51777 5.00001L17.2764 5C18.2009 5 18.9504 5.7495 18.9504 6.67405V18.1613C18.9504 18.907 18.0489 19.2805 17.5216 18.7532L16.0497 17.2813C15.8185 17.0501 15.439 17.0663 15.2284 17.3164L14.1053 18.6495C13.7822 19.0331 13.1965 19.0483 12.8539 18.682L11.6164 17.359C11.3793 17.1055 10.9707 17.1277 10.7624 17.4054L9.85476 18.6156C9.37212 19.2592 8.34811 18.9178 8.34811 18.1134V12.2542H5.83703C5.37475 12.2542 5 11.8795 5 11.4172V7.51108ZM7.51108 6.67405C7.97336 6.67405 8.34811 7.0488 8.34811 7.51108V10.5802H6.67405V7.51108C6.67405 7.0488 7.0488 6.67405 7.51108 6.67405ZM11.9752 8.48761C11.59 8.48761 11.2777 8.7999 11.2777 9.18513C11.2777 9.57036 11.59 9.88266 11.9752 9.88266H15.3233C15.7086 9.88266 16.0209 9.57036 16.0209 9.18513C16.0209 8.7999 15.7086 8.48761 15.3233 8.48761H11.9752ZM11.9752 11.8357C11.59 11.8357 11.2777 12.148 11.2777 12.5332C11.2777 12.9185 11.59 13.2308 11.9752 13.2308H15.3233C15.7086 13.2308 16.0209 12.9185 16.0209 12.5332C16.0209 12.148 15.7086 11.8357 15.3233 11.8357H11.9752Z" fill="white"/>
</svg>
