<svg width="24" height="24" viewBox="0 0 24 24" fill="none" xmlns="http://www.w3.org/2000/svg">
<rect width="24" height="24" rx="4" fill="#0176FC"/>
<path d="M8.50013 5C6.55585 5 6.2584 5.63824 5.9373 6.58576L5.12866 8.97523C4.78787 9.98185 5.1326 11.1461 6.06141 11.6828C6.41106 11.8848 6.81883 12 7.25516 12C8.28935 12 9.30778 11.3549 9.63183 10.4448C9.948 11.3549 10.9664 12 12.0006 12C13.0348 12 14.0532 11.3549 14.3694 10.4448C14.6935 11.3549 15.7119 12 16.7461 12C17.1834 12 17.5902 11.8848 17.9398 11.6828C18.8686 11.1461 19.2124 9.98185 18.8726 8.97523L18.0639 6.58576C17.7428 5.63824 17.4454 5 15.5011 5H8.50013Z" fill="url(#paint0_linear_1247_48596)"/>
<path d="M18.2216 12.8402V16.6667C18.2216 18.2219 17.4435 19 15.8883 19H13.812C13.683 19 13.5786 18.8956 13.5786 18.7666V16.3722C13.5786 15.597 13.0536 14.8731 12.2883 14.7441C11.3172 14.5806 10.4672 15.335 10.4672 16.2776V18.7666C10.4672 18.8956 10.3628 19 10.2337 19H8.11019C6.55496 19 5.77686 18.2219 5.77686 16.6667V12.8402C6.23584 13.0578 6.74112 13.1672 7.25427 13.1672C8.14072 13.1672 8.98876 12.8559 9.64178 12.3428C10.2948 12.8559 11.135 13.1672 11.9987 13.1672C12.8625 13.1672 13.7096 12.8559 14.3636 12.3428C15.0166 12.8559 15.8647 13.1672 16.7511 13.1672C17.2564 13.1672 17.7626 13.0578 18.2206 12.8402H18.2216Z" fill="url(#paint1_linear_1247_48596)"/>
<defs>
<linearGradient id="paint0_linear_1247_48596" x1="9.43287" y1="14.8938" x2="13.741" y2="5.66287" gradientUnits="userSpaceOnUse">
<stop stop-color="#E6F8FF"/>
<stop offset="0.98" stop-color="white"/>
</linearGradient>
<linearGradient id="paint1_linear_1247_48596" x1="9.93135" y1="19.9938" x2="13.6239" y2="11.2554" gradientUnits="userSpaceOnUse">
<stop stop-color="#E6F8FF"/>
<stop offset="0.98" stop-color="white"/>
</linearGradient>
</defs>
</svg>
