<svg width="24" height="24" viewBox="0 0 24 24" fill="none" xmlns="http://www.w3.org/2000/svg">
<rect width="24" height="24" rx="4" fill="#ED2624"/>
<path d="M12.8089 6.52361C12.102 8.02438 12.4065 9.35115 13.7333 10.3408C14.1683 10.6671 14.6468 10.9281 15.1144 11.1999C15.5929 11.4718 15.9953 11.8633 16.2346 12.3201C16.5717 12.9508 15.8539 13.8208 14.9187 13.8426C12.8089 13.9296 10.6991 13.9296 8.58931 13.9514C8.55669 13.9514 8.53494 13.9514 8.50231 13.9514L8.91557 12.7333L9.10045 12.6898C10.0031 12.6898 10.8949 12.6898 11.7975 12.6898C11.9932 12.6898 12.2325 12.7551 12.3195 12.4615C12.4717 11.9829 12.7545 11.5479 12.8306 11.0042C11.145 11.0042 9.5137 11.0042 7.88243 11.0042C7.4148 11.0042 7.06679 11.1782 6.92541 11.6784C6.64266 12.7007 6.32728 13.7121 6.0554 14.7452C5.91402 15.289 6.02277 15.7458 6.62091 15.9741C9.19832 15.9741 11.7757 15.9633 14.3532 15.9633C15.0818 15.9633 15.7996 15.8871 16.4847 15.5826C17.7462 15.0171 18.5945 14.1145 18.812 12.7333C19.0404 11.2869 18.3226 10.2864 17.1481 9.55778C16.7131 9.2859 16.2454 9.03577 15.8213 8.75302C15.321 8.41589 14.8317 8.05701 15.0383 7.32837C15.2449 6.58886 15.8974 5.94723 16.6369 6.0886C16.7566 6.11035 16.8544 6.12123 16.9523 6.12123C17.4308 6.19736 17.768 6.34961 17.768 6.34961L18.551 4.34858C18.2247 4.22895 17.9093 4.13107 17.7027 4.06582C15.6255 3.72869 13.668 4.70746 12.8089 6.52361Z" fill="white"/>
<path d="M9.47598 19.7218C10.2722 19.5685 10.7934 18.7987 10.6401 18.0024C10.4867 17.2062 9.71697 16.685 8.92073 16.8383C8.12448 16.9917 7.6033 17.7614 7.75663 18.5577C7.90996 19.3539 8.67974 19.8751 9.47598 19.7218Z" fill="white"/>
<path d="M15.9252 19.722C16.7214 19.5687 17.2426 18.7989 17.0893 18.0027C16.936 17.2064 16.1662 16.6853 15.3699 16.8386C14.5737 16.9919 14.0525 17.7617 14.2058 18.5579C14.3592 19.3542 15.129 19.8754 15.9252 19.722Z" fill="white"/>
</svg>
