<svg width="24" height="24" viewBox="0 0 24 24" fill="none" xmlns="http://www.w3.org/2000/svg">
<rect width="24" height="24" rx="4" fill="#EA501F"/>
<path d="M5.69759 8.46522H8.93369C9.03254 7.36933 9.33767 6.38517 9.77602 5.6245C10.3562 4.61886 11.1813 4 12.1139 4C13.0465 4 13.8673 4.62315 14.4518 5.6245C14.8902 6.38088 15.1953 7.36933 15.2942 8.46522H18.526C18.9084 8.46522 19.2523 8.77894 19.2222 9.16143L18.5732 18.2165C18.4916 19.3511 17.7782 20 16.7424 20H7.4854C6.33364 20 5.72338 19.1963 5.65462 18.2165L5.00138 9.16573C4.97559 8.78324 5.31511 8.46522 5.69759 8.46522ZM9.74164 8.46522H14.4776C14.3831 7.51544 14.1209 6.67311 13.747 6.02847C13.3173 5.27639 12.7328 4.80795 12.1139 4.80795C11.4908 4.80795 10.9106 5.27639 10.4722 6.03277C10.0983 6.67311 9.84049 7.51974 9.74164 8.46522Z" fill="white"/>
<path d="M9.76289 16.8239C9.61247 16.7207 9.57379 16.5187 9.67694 16.3683C9.78008 16.2179 9.98207 16.1792 10.1325 16.2824C10.227 16.3468 10.3259 16.4113 10.4333 16.4757C11.1897 16.9356 11.8859 17.1634 12.4661 17.1634C12.9904 17.1634 13.4159 16.9657 13.6866 16.566C13.7038 16.5359 13.721 16.5187 13.7253 16.5058C13.8026 16.3812 13.8585 16.248 13.8972 16.119C13.9745 15.8526 13.9617 15.5775 13.8542 15.3283C13.7382 15.0661 13.5147 14.8126 13.1666 14.602C12.9345 14.4602 12.6466 14.3355 12.2985 14.241C11.4132 13.9917 10.7599 13.6393 10.4075 13.1666C10.0207 12.6466 9.99066 12.0191 10.4032 11.2584C10.6783 10.7556 11.2413 10.4419 11.9547 10.386C12.5692 10.3388 13.3084 10.4849 14.0605 10.8674C14.2238 10.949 14.2883 11.1467 14.2023 11.31C14.1164 11.4733 13.923 11.5378 13.7597 11.4518C13.1193 11.1252 12.5091 11.0006 12.0019 11.0393C11.5163 11.0779 11.1467 11.267 10.9834 11.5679C10.7084 12.0707 10.7127 12.4661 10.9361 12.7669C11.194 13.115 11.7312 13.3858 12.479 13.5963C12.883 13.7124 13.2268 13.8585 13.5104 14.0304C13.9788 14.314 14.2926 14.6707 14.4602 15.0575C14.6321 15.4572 14.6536 15.8784 14.5375 16.2909C14.486 16.4757 14.4043 16.6605 14.2926 16.841C14.2668 16.8797 14.2496 16.9098 14.2367 16.9313C13.837 17.5201 13.2225 17.8123 12.4747 17.8166C11.7742 17.8166 10.9576 17.5587 10.0981 17.0344C9.99066 16.9743 9.87893 16.9055 9.76289 16.8239Z" fill="#EA501F"/>
</svg>
