<svg width="24" height="24" viewBox="0 0 24 24" fill="none" xmlns="http://www.w3.org/2000/svg">
<rect width="24" height="24" rx="4" fill="#0176FC"/>
<path d="M16.0117 15.1131C15.6324 15.1131 15.2835 15.2385 15.0003 15.4475L15.0034 15.4433L8.41354 12.1175C8.41354 11.9911 8.39891 11.8678 8.37279 11.7487L14.5176 8.05829C14.806 8.2798 15.1654 8.41354 15.5562 8.41354C16.4986 8.41354 17.2624 7.64975 17.2624 6.70625C17.2624 5.76274 16.4986 5 15.5562 5C14.6137 5 13.8499 5.76379 13.8499 6.70625C13.8499 6.8891 13.8792 7.06568 13.9325 7.23076L7.91932 10.917C7.61005 10.6046 7.18061 10.4103 6.70625 10.4103C5.76379 10.4103 5 11.174 5 12.1165C5 13.059 5.76379 13.8227 6.70625 13.8227C7.26315 13.8227 7.75633 13.5542 8.06769 13.1415L14.3828 16.3064C14.3316 16.4683 14.3044 16.6397 14.3044 16.8183C14.3044 17.7608 15.0682 18.5246 16.0107 18.5246C16.9531 18.5246 17.718 17.7608 17.718 16.8183C17.718 15.8759 16.9542 15.1121 16.0107 15.1121L16.0117 15.1131Z" fill="url(#paint0_linear_6785_86190)"/>
<path d="M15.4671 18.9999C16.9057 18.9999 18.0719 17.8337 18.0719 16.3951C18.0719 14.9565 16.9057 13.7903 15.4671 13.7903C14.0285 13.7903 12.8623 14.9565 12.8623 16.3951C12.8623 17.8337 14.0285 18.9999 15.4671 18.9999Z" fill="url(#paint1_linear_6785_86190)"/>
<defs>
<linearGradient id="paint0_linear_6785_86190" x1="9.62661" y1="16.9479" x2="15.9501" y2="7.89843" gradientUnits="userSpaceOnUse">
<stop stop-color="#E6F8FF"/>
<stop offset="0.98" stop-color="white"/>
</linearGradient>
<linearGradient id="paint1_linear_6785_86190" x1="13.2917" y1="19.5088" x2="19.6152" y2="10.4593" gradientUnits="userSpaceOnUse">
<stop stop-color="#E6F8FF"/>
<stop offset="0.98" stop-color="white"/>
</linearGradient>
</defs>
</svg>
