<svg width="24" height="24" viewBox="0 0 24 24" fill="none" xmlns="http://www.w3.org/2000/svg">
<rect width="24" height="24" rx="4" fill="#1BA9FF"/>
<path d="M7.38888 10.2295C6.18942 10.2299 4.98954 10.2286 3.79009 10.2308C3.69095 10.2308 3.58925 10.2406 3.49355 10.2647C3.18027 10.3428 3.00218 10.6119 3.00003 10.9955C2.99746 11.3925 3.14337 11.6058 3.48368 11.7006C3.836 11.7688 4.19219 11.7315 4.54581 11.7272C4.74621 11.7251 4.81102 11.7697 4.80973 11.983C4.80115 13.7086 4.80587 15.4341 4.80715 17.1597C4.80715 17.3751 4.81874 17.588 4.9831 17.7554C4.99555 17.7996 5.02645 17.8253 5.06807 17.8403C5.40624 18.1862 6.02635 18.0678 6.24693 17.6159C6.33919 17.4382 6.33919 17.2455 6.33919 17.0529C6.33919 15.3535 6.34305 13.6536 6.33361 11.9542C6.33276 11.7607 6.3997 11.7251 6.56578 11.7298C6.86532 11.7384 7.16572 11.7388 7.46526 11.7293C7.66782 11.7229 7.86136 11.6783 7.99354 11.4985C8.19309 11.2268 8.22613 10.935 8.0858 10.632C7.95062 10.3394 7.69958 10.2295 7.38888 10.2295Z" fill="#FCFDFC"/>
<path d="M10.5731 16.4537C10.5735 14.8719 10.5735 13.2901 10.5723 11.7082C10.5723 11.4877 10.5645 11.2671 10.5607 11.0469C10.5512 10.4706 10.1307 10.1341 9.5775 10.2599C9.17281 10.3517 8.9767 10.6281 8.97627 11.1233C8.97498 13.0532 8.97584 14.9826 8.97627 16.9125C8.97627 17.0554 8.97283 17.1987 8.9827 17.3412C9.00373 17.6369 9.23247 17.9579 9.49038 17.9926C9.89678 18.0476 10.2216 18.0484 10.4289 17.709C10.6306 17.3785 10.5658 17.0202 10.5615 16.6666C10.565 16.5953 10.5731 16.5245 10.5731 16.4537Z" fill="#FCFDFC"/>
<path d="M19.9623 10.4893L19.9619 10.4884C19.7023 10.1678 19.1551 10.1593 18.886 10.3927C18.8337 10.4331 18.7706 10.4631 18.7483 10.5326C18.6401 10.6717 18.5831 10.8266 18.5835 11.0051C18.5865 12.8835 18.5878 14.7618 18.5891 16.6402C18.5891 16.8685 18.5818 17.0972 18.5856 17.3255C18.5899 17.5542 18.6977 17.7547 18.8624 17.889C19.1255 18.1036 19.6486 18.0546 19.9241 17.828C19.937 17.813 19.9499 17.7984 19.9628 17.7834C19.946 17.7384 19.928 17.6946 19.9156 17.6508C19.928 17.6942 19.946 17.7384 19.9628 17.7834C20.1276 17.6135 20.173 17.3989 20.173 17.1749C20.1756 15.1631 20.176 13.1517 20.1739 11.1399C20.1743 10.9034 20.1379 10.6721 19.9623 10.4893ZM18.9641 17.4551C18.9641 17.4551 18.9641 17.4555 18.9641 17.4551C18.9603 17.4641 18.9526 17.4744 18.9504 17.4826C18.9526 17.4744 18.9603 17.4641 18.9641 17.4551Z" fill="#FCFDFC"/>
<path d="M16.7855 15.9408C16.7538 15.8584 16.6954 15.7987 16.6216 15.7528C16.5667 15.6876 16.5148 15.6194 16.4564 15.5576C15.9706 15.0443 15.4874 14.5281 14.9943 14.0217C14.8767 13.9011 14.9033 13.8316 15.0089 13.729C15.4346 13.3162 15.859 12.9025 16.2736 12.4785C16.6023 12.142 16.9662 11.8382 17.2409 11.4498C17.4112 11.2091 17.4627 10.9507 17.3263 10.6851C17.0611 10.1688 16.4714 10.0624 16.0556 10.48C15.5522 10.9855 15.0801 11.5223 14.5965 12.0472C14.5634 12.0832 14.4956 12.1184 14.5489 12.1879L14.5454 12.1918C14.463 12.1429 14.43 12.2184 14.3914 12.26C14.0952 12.5772 13.8026 12.8977 13.5078 13.2162C13.4764 13.2501 13.4528 13.3037 13.3683 13.2758C13.3683 13.19 13.3687 13.0994 13.3683 13.0085C13.3666 12.3227 13.3691 11.6369 13.361 10.9516C13.3545 10.4014 12.8181 10.1529 12.3984 10.2516C11.9676 10.3534 11.771 10.6349 11.7706 11.1438C11.7697 13.0724 11.7706 15.001 11.7706 16.93C11.7706 17.0656 11.7611 17.2025 11.7757 17.3368C11.8414 17.9415 12.3538 18.1178 12.8224 17.9934C13.1949 17.8943 13.3618 17.6329 13.3653 17.2467C13.373 16.4184 13.3743 15.5902 13.3799 14.7615C13.3803 14.7092 13.3391 14.6366 13.4121 14.61C13.4683 14.5894 13.4927 14.6555 13.5249 14.6903C13.6416 14.8156 13.7549 14.9439 13.873 15.0679C14.2167 15.4293 14.5278 15.8211 14.8947 16.1605C14.9548 16.2283 15.0149 16.2961 15.0746 16.3635C15.4861 16.8527 15.9148 17.3265 16.3658 17.7797C16.5457 17.9603 16.7598 18.0234 17.0211 18.0269C17.6627 18.0346 17.9691 17.3793 17.649 16.8755C17.419 16.5154 17.1053 16.2236 16.7855 15.9408ZM14.7102 15.2662C14.6969 15.24 14.6755 15.222 14.6411 15.2177C14.6755 15.222 14.6969 15.24 14.7102 15.2662ZM14.9235 15.3722C14.9256 15.3756 14.9274 15.3795 14.9291 15.3833C14.9274 15.3795 14.9256 15.3756 14.9235 15.3722ZM16.9954 11.1456C16.9941 11.1829 16.9774 11.2061 16.9452 11.2078C16.9774 11.2061 16.9941 11.1829 16.9954 11.1456C16.9924 11.1074 16.9735 11.0756 16.937 11.0674C16.9735 11.0756 16.9924 11.1074 16.9954 11.1456ZM13.1589 14.3075C13.161 14.2993 13.1687 14.289 13.1726 14.28C13.1683 14.289 13.161 14.2993 13.1589 14.3075Z" fill="#FCFDFC"/>
<path d="M19.2816 9.4372C19.2846 9.4372 19.2877 9.43677 19.2911 9.43677C19.2877 9.43677 19.2842 9.43677 19.2808 9.43677C19.2812 9.4372 19.2812 9.4372 19.2816 9.4372Z" fill="#606060"/>
<path d="M19.2812 6C18.9924 6 18.7203 6.07167 18.4813 6.19783C18.4285 6.22144 18.3783 6.25019 18.332 6.28624C18.0243 6.49051 17.7865 6.79091 17.6612 7.14495C17.5968 7.29944 17.5681 7.46166 17.5651 7.62774C17.5634 7.65778 17.5625 7.68825 17.5625 7.71872C17.5625 8.05559 17.6595 8.3693 17.8269 8.63451C18.0723 9.0349 18.4757 9.31599 18.9486 9.40611C18.9933 9.41469 19.0379 9.4207 19.0821 9.42585C19.1177 9.42971 19.1538 9.43314 19.1894 9.43486C19.1911 9.43486 19.1928 9.43486 19.1945 9.43529C19.2229 9.43658 19.2512 9.43743 19.2799 9.43743C19.2834 9.43743 19.2868 9.43743 19.2902 9.43743C19.3108 9.43743 19.3314 9.43658 19.352 9.43572C19.3692 9.43486 19.3864 9.434 19.4035 9.43271C19.4074 9.43228 19.4113 9.43228 19.4147 9.43185C20.3013 9.36362 20.9995 8.62292 20.9995 7.71915C20.9999 6.76945 20.2305 6 19.2812 6ZM19.8777 9.0585C19.1589 9.47219 18.2517 9.07095 18.0328 8.24914C17.9728 8.02384 17.9843 7.79768 17.9766 7.57023C17.9625 7.57109 17.9496 7.57066 17.938 7.56938C17.95 7.57066 17.9629 7.57066 17.9766 7.57023C17.9882 7.53075 17.9994 7.49127 18.011 7.45179C18.4234 7.41059 18.8366 7.44192 19.2495 7.43548C19.6202 7.4299 19.991 7.43634 20.3618 7.43334C20.4661 7.43248 20.5339 7.45007 20.5553 7.57452C20.6553 8.14786 20.3734 8.77312 19.8777 9.0585Z" fill="#FCFDFC"/>
<path d="M9.66357 6.03854C8.74048 5.98403 7.94013 6.86592 7.96288 7.75639C7.98648 8.68419 8.74606 9.43648 9.69704 9.42918C10.6012 9.42275 11.3703 8.67518 11.3801 7.73536C11.3896 6.78996 10.5768 6.00463 9.66357 6.03854ZM10.1541 9.11977C9.43784 9.4442 8.62547 8.99618 8.42292 8.18811C8.41262 8.14648 8.40361 8.10485 8.39545 8.0628C8.30876 7.62293 8.35039 7.47959 8.66839 7.44397H10.8398C10.9137 7.46844 10.9463 7.52894 10.957 7.63795C11.0261 8.33959 10.6927 8.87602 10.1541 9.11977Z" fill="#FCFDFC"/>
</svg>
