<svg width="24" height="24" viewBox="0 0 24 24" fill="none" xmlns="http://www.w3.org/2000/svg">
<g clip-path="url(#clip0_8988_64941)">
<path d="M0 4.8C0 2.14903 2.14903 0 4.8 0H19.2C21.851 0 24 2.14903 24 4.8V19.2C24 21.851 21.851 24 19.2 24H4.8C2.14903 24 0 21.851 0 19.2V4.8Z" fill="black"/>
<path d="M18.1486 9.33098C18.0022 8.01355 17.6588 6.93258 16.3357 6.93258C16.043 6.93258 15.7052 6.93258 15.3448 6.93258C15.1928 5.06342 13.729 3.59961 11.9443 3.59961C10.1596 3.59961 8.69578 5.06905 8.54377 6.93258C8.19471 6.93258 7.8738 6.93258 7.58667 6.93258C6.26361 6.93258 5.92581 8.01355 5.7738 9.33098C5.52608 11.5154 4.7998 18.0012 4.7998 18.0012C4.7998 19.3243 5.87514 20.3996 7.1982 20.3996H16.7242C18.0473 20.3996 19.1226 19.3243 19.1226 18.0012C19.1226 18.0012 18.3907 11.5154 18.1486 9.33098ZM12.0175 5.25484C13.2223 5.25484 13.6446 5.92481 13.791 6.93822C12.603 6.93822 11.2912 6.93822 10.1033 6.93822C10.3116 5.92481 10.8127 5.25484 12.0175 5.25484Z" fill="white"/>
<path d="M13.7635 12.4952C14.3096 12.8836 14.9739 13.1145 15.6946 13.1145V11.7295C15.5595 11.7295 15.4243 11.7126 15.2892 11.6844V12.7767C14.5686 12.7767 13.9042 12.5458 13.3581 12.1574V14.9836C13.3581 16.3968 12.2096 17.5453 10.7965 17.5453C10.2672 17.5453 9.77743 17.3876 9.37207 17.1118C9.83936 17.5847 10.4868 17.8831 11.2075 17.8831C12.6206 17.8831 13.7691 16.7346 13.7691 15.3214L13.7635 12.4952ZM14.2646 11.0989C13.9887 10.7949 13.8029 10.4008 13.7635 9.96727V9.78711H13.3807C13.4764 10.3389 13.8029 10.8118 14.2646 11.0989ZM10.2616 16.0308C10.104 15.8281 10.0195 15.5804 10.0252 15.3214C10.0252 14.674 10.5487 14.1504 11.1962 14.1504C11.3144 14.1504 11.4383 14.1673 11.5509 14.2067V12.7879C11.4158 12.771 11.2806 12.7598 11.1455 12.7654V13.8689C11.0329 13.8351 10.9091 13.8126 10.7908 13.8126C10.1434 13.8126 9.61979 14.3362 9.61979 14.9836C9.61416 15.4397 9.87877 15.8338 10.2616 16.0308Z" fill="#FF004F"/>
<path d="M13.3574 12.1573C13.9035 12.5458 14.5678 12.7767 15.2885 12.7767V11.6844C14.8888 11.6 14.5284 11.386 14.2638 11.0989C13.8078 10.8118 13.4756 10.3389 13.3799 9.78711H12.3721V15.3214C12.3721 15.9689 11.8485 16.4868 11.2011 16.4868C10.8182 16.4868 10.4804 16.3067 10.2665 16.0252C9.88366 15.8338 9.61904 15.434 9.61904 14.978C9.61904 14.3305 10.1426 13.8069 10.7901 13.8069C10.914 13.8069 11.0322 13.8238 11.1448 13.8632V12.7598C9.75416 12.7879 8.63379 13.9252 8.63379 15.3214C8.63379 16.0195 8.90966 16.6501 9.36569 17.1118C9.77105 17.3876 10.2665 17.5453 10.7901 17.5453C12.2032 17.5453 13.3518 16.3968 13.3518 14.9836L13.3574 12.1573Z" fill="black"/>
<path d="M15.2888 11.6843V11.3916C14.9285 11.3916 14.5682 11.2902 14.2641 11.0988C14.5344 11.3972 14.8947 11.5999 15.2888 11.6843ZM13.3746 9.78702C13.3633 9.73635 13.3577 9.68005 13.3521 9.62938V9.44922H11.9615V14.9835C11.9615 15.631 11.4379 16.149 10.7904 16.149C10.599 16.149 10.4188 16.1039 10.2612 16.0251C10.4751 16.3066 10.8129 16.4868 11.1958 16.4868C11.8432 16.4868 12.3668 15.9632 12.3668 15.3213V9.78702H13.3746ZM11.1451 12.7653V12.45C11.0269 12.4331 10.9086 12.4275 10.796 12.4275C9.3829 12.4275 8.23438 13.576 8.23438 14.9892C8.23438 15.8787 8.68478 16.6557 9.37164 17.1173C8.92124 16.6557 8.63974 16.0251 8.63974 15.327C8.63411 13.9251 9.75448 12.7935 11.1451 12.7653Z" fill="#00F2EA"/>
</g>
<defs>
<clipPath id="clip0_8988_64941">
<rect width="24" height="24" fill="white"/>
</clipPath>
</defs>
</svg>
