<svg width="24" height="24" viewBox="0 0 24 24" fill="none" xmlns="http://www.w3.org/2000/svg">
<g clip-path="url(#clip0_8988_112537)">
<path d="M0 4.8C0 2.14903 2.14903 0 4.8 0H19.2C21.851 0 24 2.14903 24 4.8V19.2C24 21.851 21.851 24 19.2 24H4.8C2.14903 24 0 21.851 0 19.2V4.8Z" fill="black"/>
<path d="M9.40243 12.3297C7.97509 12.3297 6.82196 13.4828 6.84306 14.8961C6.85712 15.8031 7.35634 16.5906 8.0911 17.0301C7.8415 16.6469 7.69384 16.1934 7.68681 15.7047C7.66571 14.2914 8.81884 13.1383 10.2462 13.1383C10.5274 13.1383 10.7981 13.184 11.0513 13.2648V10.4348C10.7876 10.3961 10.5169 10.375 10.2462 10.375C10.2321 10.375 10.2216 10.375 10.2075 10.375V12.4562C9.95439 12.3754 9.68368 12.3297 9.40243 12.3297Z" fill="#F00044"/>
<path d="M15.5717 3.84375H15.5506H14.8193C15.0303 4.90195 15.6244 5.82305 16.4541 6.44883C15.9092 5.72813 15.5787 4.82813 15.5717 3.84375Z" fill="#F00044"/>
<path d="M19.8752 8.14961C19.5975 8.14961 19.3303 8.12148 19.0666 8.07227V10.1008C18.1104 10.1008 17.1822 9.91445 16.3104 9.5418C15.7479 9.30273 15.224 8.99688 14.7424 8.62773L14.7564 14.882C14.7494 16.2883 14.1939 17.6066 13.1885 18.6016C12.3693 19.4102 11.3322 19.927 10.2072 20.0922C9.94355 20.1309 9.67285 20.152 9.40215 20.152C8.1998 20.152 7.05371 19.7617 6.12207 19.041C6.22754 19.1676 6.34004 19.2906 6.46309 19.4102C7.47559 20.4086 8.81855 20.9605 10.2494 20.9605C10.5201 20.9605 10.7908 20.9395 11.0545 20.9008C12.1795 20.7355 13.2166 20.2188 14.0357 19.4102C15.0412 18.4152 15.5967 17.0969 15.6037 15.6906L15.551 9.43633C16.0291 9.80547 16.5529 10.1148 17.1189 10.3504C17.9943 10.7195 18.9225 10.9094 19.8752 10.9094" fill="#F00044"/>
<path d="M6.45256 11.9324C7.45451 10.9375 8.78693 10.3855 10.2072 10.375V9.62617C9.94357 9.5875 9.67287 9.56641 9.40216 9.56641C7.96779 9.56641 6.62131 10.1184 5.60881 11.1238C4.61388 12.1117 4.04435 13.4617 4.04787 14.8645C4.04787 16.2777 4.60685 17.6031 5.61584 18.6051C5.77756 18.7633 5.94279 18.9109 6.11857 19.0445C5.32404 18.0988 4.89162 16.9176 4.8881 15.673C4.89162 14.2703 5.45763 12.9203 6.45256 11.9324Z" fill="#08FFF9"/>
<path d="M19.0666 8.07344V7.32109H19.0596C18.0822 7.32109 17.1822 6.99766 16.458 6.44922C17.0873 7.27891 18.0084 7.86953 19.0666 8.07344Z" fill="#08FFF9"/>
<path d="M10.1018 18.1945C10.4357 18.2121 10.7557 18.1664 11.051 18.0715C12.0705 17.7375 12.8053 16.7883 12.8053 15.6703L12.8088 11.4867V3.84375H14.8197C14.767 3.58008 14.7389 3.31289 14.7354 3.03516H11.965V10.6746L11.9615 14.8582C11.9615 15.9762 11.2268 16.9254 10.2072 17.2594C9.91191 17.3578 9.59199 17.4035 9.25801 17.3824C8.83262 17.3578 8.43535 17.2312 8.09082 17.0273C8.52324 17.6953 9.26152 18.1488 10.1018 18.1945Z" fill="#08FFF9"/>
<path d="M10.2072 20.093C11.3322 19.9277 12.3694 19.4109 13.1885 18.6023C14.194 17.6074 14.7494 16.2891 14.7565 14.8828L14.7424 8.62852C15.2205 8.99766 15.7444 9.30703 16.3104 9.54258C17.1858 9.91172 18.1139 10.1016 19.0666 10.1016V8.07305C18.0084 7.86914 17.0873 7.27852 16.458 6.44883C15.6283 5.82305 15.0307 4.90195 14.8233 3.84375H12.8088V11.4832L12.8053 15.6668C12.8053 16.7848 12.0705 17.734 11.051 18.068C10.7557 18.1664 10.4358 18.2121 10.1018 18.191C9.25802 18.1453 8.52326 17.6918 8.09084 17.0273C7.35607 16.5914 6.85685 15.8004 6.84279 14.8934C6.8217 13.4801 7.97482 12.327 9.40216 12.327C9.68341 12.327 9.95412 12.3727 10.2072 12.4535V10.3723C8.78693 10.3828 7.45451 10.9348 6.45256 11.9297C5.45763 12.9176 4.8881 14.2676 4.89162 15.6668C4.89162 16.9113 5.32404 18.0926 6.12209 19.0383C7.05724 19.759 8.19982 20.1492 9.40216 20.1492C9.67287 20.1527 9.94357 20.1316 10.2072 20.093Z" fill="white"/>
</g>
<defs>
<clipPath id="clip0_8988_112537">
<rect width="24" height="24" fill="white"/>
</clipPath>
</defs>
</svg>
