<svg width="24" height="24" viewBox="0 0 24 24" fill="none" xmlns="http://www.w3.org/2000/svg">
<rect width="24" height="24" rx="4" fill="#0176FC"/>
<path d="M10.406 16.828C9.65742 16.7049 9.01993 17.3434 9.14203 18.092C9.21608 18.5453 9.58237 18.9106 10.0347 18.9847C10.7833 19.1078 11.4208 18.4693 11.2977 17.7217C11.2236 17.2684 10.8583 16.9031 10.405 16.829L10.406 16.828ZM15.9202 16.828C15.1716 16.7049 14.5342 17.3434 14.6563 18.092C14.7303 18.5453 15.0966 18.9106 15.5489 18.9847C16.2975 19.1078 16.935 18.4693 16.8119 17.7217C16.7378 17.2684 16.3726 16.9031 15.9192 16.829L15.9202 16.828Z" fill="url(#paint0_linear_6785_86197)"/>
<path d="M17.2853 7.08159H8.7147C8.63765 7.08159 8.5716 7.02955 8.55158 6.9555L8.26536 5.85165C8.17329 5.36328 7.73896 5 7.23757 5H5.69339C5.35213 5 5.04489 5.24519 5.00486 5.58445C4.95683 5.98776 5.27107 6.33102 5.66537 6.33102H6.8833C6.96036 6.33102 7.02641 6.38306 7.04643 6.45712L8.79877 13.2043C8.80778 13.2403 8.80477 13.2793 8.78976 13.3134L8.10624 14.8846C8.04219 15.0317 8.02117 15.1968 8.06421 15.3509C8.14827 15.6482 8.41447 15.8393 8.7057 15.8393H17.0441C17.3853 15.8393 17.6926 15.5941 17.7326 15.2549C17.7806 14.8515 17.4664 14.5083 17.0721 14.5083H9.97967C9.85858 14.5083 9.77652 14.3842 9.82556 14.2731L10.1268 13.5816C10.1318 13.5706 10.1308 13.5586 10.1348 13.5475H16.3746C17.1191 13.5475 17.7656 13.0352 17.9358 12.3106L18.7354 8.913C18.9555 7.97728 18.246 7.08159 17.2853 7.08159Z" fill="url(#paint1_linear_6785_86197)"/>
<path d="M15.3609 8.61265C15.1398 8.39148 14.7805 8.39148 14.5593 8.61265L12.9441 10.2279L12.3366 9.62043C12.1155 9.39926 11.7562 9.39926 11.535 9.62043C11.3138 9.8416 11.3138 10.2009 11.535 10.422L12.5428 11.4298C12.6489 11.5359 12.793 11.5959 12.9441 11.5959C13.0952 11.5959 13.2383 11.5359 13.3454 11.4298L15.3619 9.41327C15.5831 9.1921 15.5831 8.83282 15.3619 8.61165L15.3609 8.61265Z" fill="#007CE8"/>
<defs>
<linearGradient id="paint0_linear_6785_86197" x1="11.5369" y1="19.8654" x2="24.2436" y2="2.59412" gradientUnits="userSpaceOnUse">
<stop offset="0.98" stop-color="white"/>
<stop offset="1" stop-color="#E6F8FF"/>
</linearGradient>
<linearGradient id="paint1_linear_6785_86197" x1="6.91933" y1="16.4688" x2="19.6261" y2="-0.802445" gradientUnits="userSpaceOnUse">
<stop stop-color="#E6F8FF"/>
<stop offset="0.98" stop-color="white"/>
</linearGradient>
</defs>
</svg>
