<svg width="24" height="24" viewBox="0 0 24 24" fill="none" xmlns="http://www.w3.org/2000/svg">
<rect width="24" height="24" rx="4" fill="#0DB473"/>
<path d="M19.0168 6.6424C19.0168 5.73898 18.2779 5 17.3744 5H6.6424C5.73898 5 5 5.73898 5 6.6424V8.20753H19.0168V6.6424Z" fill="url(#paint0_linear_1247_48598)"/>
<path d="M5 17.0844C5 18.1374 5.86181 19.0002 6.9158 19.0002H17.102C18.155 19.0002 19.0178 18.1384 19.0178 17.0844V9.12598H5V17.0834V17.0844Z" fill="url(#paint1_linear_1247_48598)"/>
<path d="M6.21826 6.60297C6.21826 6.30084 6.46393 6.05518 6.76606 6.05518C7.06819 6.05518 7.31385 6.30084 7.31385 6.60297C7.31385 6.9051 7.06918 7.15077 6.76606 7.15077C6.46294 7.15077 6.21826 6.90609 6.21826 6.60297Z" fill="#0DB473"/>
<path d="M8.13525 6.60297C8.13525 6.30084 8.37993 6.05518 8.68305 6.05518C8.98617 6.05518 9.23085 6.30084 9.23085 6.60297C9.23085 6.9051 8.98518 7.15077 8.68305 7.15077C8.38092 7.15077 8.13525 6.90609 8.13525 6.60297Z" fill="#0DB473"/>
<path d="M10.6445 11.8122C10.5277 11.3159 10.0888 10.9692 9.57867 10.9692H8.50586V12.0638H9.57867L10.2008 14.6978C10.3176 15.1941 10.7565 15.5408 11.2666 15.5408H13.4281C13.9987 15.5408 14.5197 15.1485 14.697 14.5839L15.5113 12.1728H10.7297L10.6445 11.8122Z" fill="#0DB473"/>
<path d="M13.9848 13.2686L13.656 14.2403L13.651 14.2542C13.6183 14.3612 13.5193 14.4454 13.4271 14.4454H11.2657L10.9873 13.2676H13.9838L13.9848 13.2686Z" fill="url(#paint2_linear_1247_48598)"/>
<path d="M11.9008 16.6088C11.9008 16.911 11.6551 17.1566 11.353 17.1566C11.0508 17.1566 10.8052 16.911 10.8052 16.6088C10.8052 16.3067 11.0508 16.061 11.353 16.061C11.6551 16.061 11.9008 16.3067 11.9008 16.6088Z" fill="#0DB473"/>
<path d="M13.954 16.6088C13.954 16.911 13.7093 17.1566 13.4062 17.1566C13.1031 17.1566 12.8584 16.911 12.8584 16.6088C12.8584 16.3067 13.1041 16.061 13.4062 16.061C13.7083 16.061 13.954 16.3067 13.954 16.6088Z" fill="#0DB473"/>
<defs>
<linearGradient id="paint0_linear_1247_48598" x1="9.07033" y1="18.1966" x2="10.4661" y2="13.0277" gradientUnits="userSpaceOnUse">
<stop stop-color="#E6F8FF"/>
<stop offset="0.98" stop-color="white"/>
</linearGradient>
<linearGradient id="paint1_linear_1247_48598" x1="10.574" y1="18.5455" x2="11.9629" y2="13.4024" gradientUnits="userSpaceOnUse">
<stop stop-color="#E6F8FF"/>
<stop offset="0.98" stop-color="white"/>
</linearGradient>
<linearGradient id="paint2_linear_1247_48598" x1="10.9883" y1="13.857" x2="13.9848" y2="13.857" gradientUnits="userSpaceOnUse">
<stop stop-color="#E6F8FF"/>
<stop offset="0.98" stop-color="white"/>
</linearGradient>
</defs>
</svg>
