<svg width="180" height="180" viewBox="0 0 180 180" fill="none" xmlns="http://www.w3.org/2000/svg">
<g clip-path="url(#clip0_10071_109588)">
<path d="M90.171 175.842C137.486 175.842 175.842 137.486 175.842 90.171C175.842 42.8562 137.486 4.5 90.171 4.5C42.8562 4.5 4.5 42.8562 4.5 90.171C4.5 137.486 42.8562 175.842 90.171 175.842Z" fill="url(#paint0_linear_10071_109588)"/>
<path d="M175.402 101.066C165.956 96.9437 153.664 94.9691 145.991 97.8445C138.785 100.541 139.945 105.928 132.549 108.116C120.621 111.69 112.341 99.311 94.6042 99.8999C78.8072 100.42 73.3337 110.616 61.3993 108.116C53.9627 106.557 52.5539 101.851 47.2536 98.5315C38.3794 92.9656 21.3352 93.0234 4.95508 96.222C6.39478 116.994 15.3763 136.524 30.2095 151.136C47.0012 154.291 64.0854 155.617 81.1629 155.091C111.342 153.971 141.862 145.888 162.654 136.263C169.461 125.621 173.815 113.599 175.402 101.066Z" fill="url(#paint1_linear_10071_109588)"/>
<path d="M28.957 91.1526L32.1037 92.8731L28.957 94.5937L27.2364 97.7404L25.5158 94.5937L22.3691 92.8731L25.5158 91.1526L27.2364 88.0059L28.957 91.1526Z" fill="url(#paint2_linear_10071_109588)"/>
<path d="M104.992 155.512L83.6293 158.307L61.9431 161.142C59.3507 161.471 56.9084 159.156 56.5215 155.945L55.5111 147.804L42.8839 45.4415C42.6183 43.2706 43.392 41.4634 44.7546 40.6147C45.4319 40.1992 46.228 40.0205 47.0179 40.1066L91.3026 44.1828C92.1753 44.2872 92.9932 44.6628 93.641 45.2568L49.593 41.2902C49.0064 41.2276 48.4134 41.3028 47.8609 41.5096L47.7974 41.5442L60.9385 148.434C60.9859 148.969 61.1953 149.476 61.5389 149.889C61.8824 150.302 62.3437 150.6 62.8611 150.743L105.142 146.043C106.159 145.928 106.874 144.779 106.69 143.457L106.274 139.993L94.8246 46.6482C95.441 47.595 95.8357 48.6686 95.9794 49.7892L108.254 149.768C108.618 152.66 107.163 155.224 104.992 155.512Z" fill="url(#paint3_linear_10071_109588)"/>
<path d="M103.842 146.061L62.5133 150.651C62.082 150.451 61.7103 150.141 61.4349 149.754C61.1595 149.366 60.9899 148.913 60.9429 148.44C56.6703 114.548 52.7557 80.6096 48.4485 46.7292C48.3907 46.2788 47.8711 41.5328 47.8711 41.5328C48.1061 41.4436 48.35 41.3797 48.5986 41.3423L92.3232 45.2742C92.7888 45.6708 93.1935 46.1338 93.5242 46.6484C94.5346 48.2073 105.389 143.48 105.389 143.48C105.539 144.802 104.864 145.957 103.842 146.061Z" fill="url(#paint4_linear_10071_109588)"/>
<path d="M94.8241 46.6483C94.4951 46.1291 94.0925 45.6604 93.6289 45.2568H93.8599C94.1393 45.28 94.4148 45.3382 94.6797 45.4301L94.8241 46.6483Z" fill="url(#paint5_linear_10071_109588)"/>
<path d="M47.8662 41.5156L47.8027 41.5503L47.8662 41.5156Z" fill="url(#paint6_linear_10071_109588)"/>
<path d="M48.7503 43.8363L93.0812 48.4842C93.3587 48.508 93.6322 48.5661 93.8953 48.6574L92.602 38.2646C92.4461 36.9482 91.4472 35.7877 90.4311 35.6722L46.9085 30.9204C46.0135 31.1283 45.4419 32.0752 45.5978 33.2588L45.6614 33.79L46.6082 41.4979H46.5736C46.5447 41.4979 55.367 114.536 59.6454 148.428C59.6916 148.962 59.8999 149.47 60.2425 149.883C60.5851 150.295 61.0455 150.594 61.5623 150.737L62.5092 150.628C62.0778 150.427 61.7061 150.118 61.4307 149.73C61.1553 149.342 60.9858 148.89 60.9387 148.416C56.6661 114.524 52.7515 80.5863 48.4443 46.7059C48.4443 46.4691 48.2595 45.0892 48.1152 43.819C48.3271 43.8103 48.5392 43.8161 48.7503 43.8363Z" fill="#D7E3F4"/>
<path d="M95.0438 48.3346C94.7806 48.2433 94.5071 48.1851 94.2296 48.1614L49.8987 43.5135C49.2819 43.4489 48.6584 43.532 48.08 43.756L46.8098 33.4672L46.7463 32.936C46.5904 31.7408 47.162 30.8055 48.0569 30.6265L91.5795 35.3783C92.6188 35.4937 93.5945 36.6543 93.7504 37.9707L95.0438 48.3346Z" fill="url(#paint7_linear_10071_109588)"/>
<path d="M100.223 52.1509L100.8 56.9951C100.906 57.8551 101.288 58.6575 101.889 59.2821C102.489 59.9067 103.276 60.3197 104.131 60.4593C105.771 60.6268 106.926 59.3565 106.724 57.6244L106.147 52.7802L100.223 52.1509Z" fill="#D7E3F4"/>
<path d="M98.0344 59.8124L98.3462 59.847C99.8936 60.0029 100.996 58.802 100.8 57.1565L100.223 52.1506L94.2988 51.5732L94.8762 56.5849C94.9881 57.3899 95.3553 58.1378 95.9238 58.7188C96.4922 59.2997 97.232 59.683 98.0344 59.8124Z" fill="url(#paint8_linear_10071_109588)"/>
<path d="M92.1282 59.2123H92.44C93.9873 59.3739 95.0901 58.1672 94.8938 56.5275L94.3164 51.5159L88.3926 50.9385L88.97 55.9501C89.0768 56.7607 89.4414 57.5155 90.0102 58.1029C90.5789 58.6904 91.3215 59.0793 92.1282 59.2123Z" fill="#D7E3F4"/>
<path d="M86.204 58.6058L86.5158 58.6347C88.0632 58.7964 89.166 57.5896 88.9697 55.9499L88.3923 50.9383L82.4453 50.332L83.0227 55.3437C83.1299 56.1579 83.4976 56.9156 84.071 57.5036C84.6444 58.0916 85.3927 58.4783 86.204 58.6058Z" fill="url(#paint9_linear_10071_109588)"/>
<path d="M80.2805 57.9998L80.5923 58.0345C82.1397 58.1903 83.2425 56.9894 83.0462 55.3439L82.4688 50.3323L76.5449 49.7549L77.1223 54.7607C77.2319 55.5679 77.5981 56.3184 78.1667 56.9016C78.7354 57.4848 79.4764 57.8698 80.2805 57.9998Z" fill="#D7E3F4"/>
<path d="M74.3626 57.3934L74.6744 57.4281C76.2217 57.584 77.3245 56.383 77.1282 54.7375L76.5508 49.7317L70.627 49.1543L71.2043 54.1601C71.3142 54.9666 71.6806 55.7163 72.2493 56.2985C72.818 56.8808 73.5589 57.2646 74.3626 57.3934Z" fill="url(#paint10_linear_10071_109588)"/>
<path d="M68.4329 56.7871L68.7447 56.8217C70.292 56.9776 71.3948 55.7767 71.1985 54.1311L70.6211 49.1253L64.6973 48.519L65.2746 53.5307C65.379 54.3416 65.7431 55.097 66.3123 55.684C66.8816 56.2709 67.6255 56.6579 68.4329 56.7871Z" fill="#D7E3F4"/>
<path d="M58.7734 47.9131L59.3508 52.763C59.4622 53.621 59.846 54.4206 60.4457 55.0442C61.0453 55.6678 61.8293 56.0825 62.6823 56.2273C64.322 56.3947 65.4825 55.1187 65.2747 53.3866L64.6973 48.5424L58.7734 47.9131Z" fill="url(#paint11_linear_10071_109588)"/>
<path d="M58.7551 47.9132L48.0332 43.375L50.1118 60.0785L59.3267 52.7574L58.7551 47.9132Z" fill="url(#paint12_linear_10071_109588)"/>
<path d="M59.1827 51.5391L59.3502 52.9652L50.2507 61.2678L50.0371 59.4491L59.1827 51.5391Z" fill="#B4CCEF"/>
<path d="M106.152 52.7574L95.8572 47.9132L48.0332 43.375L58.7551 47.9132L106.152 52.7574Z" fill="#B4CCEF"/>
<path d="M61.7705 134.375L43.5312 131.684L48.8604 104.144L64.6228 106.465L61.7705 134.375Z" fill="url(#paint13_linear_10071_109588)"/>
<path d="M64.6218 106.464L65.3031 107.128L65.8573 106.649L65.7361 130.697L63.9 131.592L61.7695 134.375L64.6218 106.464Z" fill="url(#paint14_linear_10071_109588)"/>
<path opacity="0.2" d="M64.6218 106.464L63.9 131.592L61.7695 134.375L64.6218 106.464Z" fill="black"/>
<path d="M51.4342 109.421C51.4168 109.544 51.3632 109.66 51.2801 109.753C51.197 109.846 51.0882 109.912 50.9675 109.943C50.8467 109.974 50.7195 109.968 50.6019 109.927C50.4843 109.886 50.3817 109.81 50.307 109.71C50.2323 109.611 50.189 109.491 50.1825 109.366C50.176 109.242 50.2066 109.118 50.2704 109.011C50.3343 108.904 50.4285 108.818 50.5411 108.765C50.6537 108.711 50.7797 108.693 50.903 108.711C51.0667 108.737 51.2138 108.825 51.3131 108.958C51.4123 109.091 51.4558 109.257 51.4342 109.421Z" fill="black"/>
<path d="M60.8561 110.558C60.8387 110.682 60.7851 110.797 60.702 110.89C60.6189 110.983 60.5101 111.049 60.3893 111.08C60.2686 111.111 60.1414 111.106 60.0238 111.064C59.9062 111.023 59.8036 110.947 59.7289 110.848C59.6542 110.748 59.6109 110.628 59.6044 110.504C59.5979 110.379 59.6285 110.255 59.6923 110.148C59.7562 110.041 59.8504 109.956 59.963 109.902C60.0756 109.849 60.2016 109.83 60.3249 109.848C60.4066 109.859 60.4852 109.887 60.5563 109.929C60.6273 109.971 60.6893 110.026 60.7387 110.092C60.7881 110.158 60.824 110.234 60.8441 110.313C60.8642 110.393 60.8683 110.477 60.8561 110.558Z" fill="black"/>
<path d="M51.1301 109.501C50.8593 110.576 50.8296 111.697 51.0432 112.784C51.2568 113.871 51.7085 114.897 52.3657 115.789C52.9431 116.551 53.9477 117.706 54.9697 117.088C55.4519 116.748 55.8818 116.34 56.2457 115.876C56.6448 115.436 56.9704 114.935 57.2099 114.392C57.5101 113.67 57.6544 112.868 58.1914 112.279C58.7521 111.746 59.4192 111.339 60.1487 111.083C60.3046 111.014 60.3277 110.587 60.1487 110.662C59.5145 110.904 58.9177 111.234 58.3762 111.644C57.8862 112.079 57.5215 112.637 57.3196 113.26C57.0918 114.016 56.7322 114.726 56.2572 115.356C55.8184 115.881 55.1024 116.851 54.3807 116.834C53.659 116.817 53.0123 116.008 52.6082 115.483C52.2064 114.955 51.8836 114.372 51.6497 113.751C51.1306 112.4 51.0418 110.922 51.3957 109.519C51.4592 109.259 51.1936 109.213 51.1301 109.467V109.501Z" fill="white"/>
<path d="M109.79 24.714L112.48 26.1863L109.79 27.6586L108.323 30.3434L106.851 27.6586L104.16 26.1863L106.851 24.714L108.323 22.0234L109.79 24.714Z" fill="url(#paint15_linear_10071_109588)"/>
<path d="M71.417 91.1063C70.88 93.4966 68.8477 96.5048 68.8477 96.5048C71.0013 98.439 77.3062 101.32 77.3062 101.32L76.8097 102.336C74.9414 102.661 73.0477 102.818 71.1514 102.804C74.0577 103.203 76.9998 103.273 79.9217 103.012L79.5926 100.489L79.633 100.044L78.5649 90.0266C78.5649 90.0266 74.4251 76.747 76.4632 75.7712C76.3623 75.7483 76.2601 75.7309 76.1572 75.7192C74.6377 76.0207 73.1993 76.6405 71.9366 77.538C70.862 78.3282 69.952 79.3206 69.2576 80.4595C70.0255 79.5934 70.522 79.1258 70.522 79.1258C70.5567 80.1939 71.9482 88.7333 71.417 91.1063Z" fill="#BDDCFD"/>
<path d="M66.8571 101.99C68.2647 102.346 69.6911 102.624 71.1297 102.821C73.026 102.835 74.9197 102.679 76.7879 102.354L77.2845 101.337C77.2845 101.337 70.9795 98.4505 68.8259 96.5221C68.8259 96.5221 70.8583 93.5139 71.3953 91.1236C71.9322 88.7333 70.535 80.1939 70.5003 79.1431C70.5003 79.1431 70.0038 79.6107 69.2359 80.4768C65.9679 85.7367 65.8351 94.5705 66.8571 101.99Z" fill="#BDDCFD"/>
<path d="M83.7028 101.453L82.9637 100.598C82.9637 100.598 88.3218 96.1986 89.8922 93.7794C89.8922 93.7794 87.1555 91.389 86.0238 89.2181C84.8921 87.0472 84.055 78.4501 83.8125 77.4108C83.1181 76.9189 82.3331 76.5696 81.503 76.383C80.0306 76.0539 78.1311 75.517 76.6472 75.6613H76.7512C76.6427 75.7013 76.5366 75.7475 76.4336 75.7999C78.6623 76.2387 78.5352 90.0553 78.5352 90.0553L79.6034 100.073L79.7477 100.488L80.0826 103.023C80.5618 102.977 81.0468 102.937 81.5318 102.873C85.3147 102.377 89.0048 101.331 92.4846 99.7668C92.4846 99.6166 92.45 99.4607 92.4327 99.3049C88.5758 101.124 83.7028 101.453 83.7028 101.453Z" fill="#BDDCFD"/>
<path d="M89.9051 93.7792C88.3231 96.1985 82.9766 100.598 82.9766 100.598L83.7156 101.453C83.7156 101.453 88.5887 101.123 92.4455 99.3105C91.4698 90.8346 88.7041 80.7825 83.8369 77.4106C84.0794 78.4499 84.9223 87.047 86.0482 89.218C87.1741 91.3889 89.9051 93.7792 89.9051 93.7792Z" fill="#BDDCFD"/>
<path d="M72.9028 76.9026C73.9832 76.2655 75.185 75.8614 76.4309 75.7162C77.6768 75.571 78.9393 75.688 80.1373 76.0597C80.1373 76.0597 80.7147 86.8104 78.5899 90.0495C78.5611 90.0495 72.6776 80.4304 72.9028 76.9026Z" fill="white"/>
<path d="M78.5312 90.2345H78.5948L78.843 90.1537L78.8834 90.0844C79.5283 88.8163 80.1065 87.5155 80.6156 86.1871C81.2969 84.3799 81.3604 82.9942 82.8962 80.6616L80.783 80.575C81.7974 79.9545 82.742 79.2267 83.6006 78.4041C82.7923 77.7574 82.1629 77.5611 81.5567 76.8278C81.3501 76.6486 81.1279 76.4882 80.8927 76.3486C80.5001 76.1243 80.0757 75.9608 79.634 75.8636C79.634 75.8636 78.6236 75.5865 78.6294 75.6038C79.7113 77.3032 80.1987 79.3136 80.0151 81.3198C79.7091 83.8372 78.9816 87.4342 78.5601 90.0959C78.5524 90.1425 78.5427 90.1887 78.5312 90.2345Z" fill="#BDDCFD"/>
<path d="M73.4855 81.516L71.9959 82.7863C73.9647 83.5484 76.6611 87.6478 78.22 90.0439H78.5606C77.7061 88.0231 76.4648 85.0669 75.974 84.1835C74.6875 81.7674 73.9948 79.0797 73.9532 76.3427C73.9532 76.2446 72.9832 76.7931 72.9024 76.9201C72.2846 77.6996 71.9786 78.277 71.3377 79.0622C70.9104 79.7377 70.5294 80.2169 70.2695 80.6153C71.6033 81.0426 72.0536 81.3601 73.4855 81.516Z" fill="#BDDCFD"/>
<g style="mix-blend-mode:multiply" opacity="0.15">
<path d="M78.7154 76.1409C78.7905 76.7183 77.9129 77.3303 76.7466 77.4862C75.5803 77.6421 74.5756 77.2783 74.5006 76.6894C74.4255 76.1005 75.3031 75.4943 76.4694 75.3441C77.6357 75.194 78.6346 75.5462 78.7154 76.1409Z" fill="#33133F"/>
</g>
<path d="M77.6657 75.4481L78.5086 75.7079C78.5086 75.7079 78.2546 76.343 76.7765 76.8165C76.2992 76.939 75.8016 76.9607 75.3155 76.8802C74.8294 76.7997 74.3654 76.6187 73.9531 76.3488L75.027 75.9793L75.1945 73.7217C75.8758 73.6409 76.5109 73.5601 77.1922 73.4619L77.6657 75.4481Z" fill="#E9AA8E"/>
<g style="mix-blend-mode:multiply" opacity="0.15">
<path d="M77.6645 75.4481L77.1911 73.4619C76.5098 73.5601 75.8747 73.6409 75.1934 73.7217V74.2645C75.3275 74.4496 75.4891 74.6131 75.6726 74.7495C75.8066 74.8624 75.9645 74.9433 76.1345 74.9862C76.2892 75.0111 76.4455 75.0246 76.6022 75.0266C76.6994 75.0312 76.7961 75.0447 76.8908 75.067C76.8465 75.102 76.8093 75.1451 76.7811 75.194C76.7061 75.3673 76.9774 75.4481 77.0872 75.4943C77.1969 75.5405 77.5202 75.7137 77.422 75.9446C77.3239 76.1756 77.0814 76.1178 76.9255 76.1987C76.7696 76.2795 76.8735 76.3661 76.9255 76.4643C76.9797 76.5433 77.0135 76.6346 77.0236 76.7299C78.2881 76.2737 78.5133 75.7079 78.5133 75.7079L77.6645 75.4481Z" fill="#33133F"/>
</g>
<path d="M78.3236 71.5332C78.2672 71.4769 78.2222 71.4102 78.1908 71.3369C78.1886 71.3522 78.1886 71.3678 78.1908 71.3831C78.1908 71.3831 78.1908 71.4177 78.1908 71.4408C78.1881 71.4658 78.1881 71.4909 78.1908 71.5159V71.6314C78.1937 71.6602 78.1937 71.6892 78.1908 71.718C78.1908 71.718 78.1908 71.718 78.1908 71.7526C78.1881 71.7776 78.1881 71.8027 78.1908 71.8277C78.035 72.6302 77.5788 74.1372 76.2971 74.2931C74.6342 74.472 73.6411 72.2434 73.543 72.0182C73.543 72.0644 73.2774 72.4281 72.8213 71.7237C72.3651 71.0193 73.2947 71.0482 73.2947 71.0482C73.2947 71.0482 72.4286 67.965 74.3282 67.6706C75.6215 67.4743 76.8225 66.7063 77.7925 67.8842C78.1504 68.323 78.3698 69.3219 78.3352 70.4131C78.3872 70.3496 78.6816 69.9974 78.8375 70.2745C78.9934 70.5517 78.7451 71.9489 78.3236 71.5332Z" fill="#E9AA8E"/>
<g style="mix-blend-mode:multiply" opacity="0.15">
<path d="M73.6688 69.2933C74.1119 69.3712 74.5652 69.3712 75.0083 69.2933C75.4076 69.2357 75.7965 69.121 76.1631 68.9526C76.5944 68.76 76.9951 68.5052 77.3525 68.1963C77.4724 68.0888 77.5825 67.9709 77.6816 67.8441C76.7289 66.6893 75.5395 67.4688 74.2578 67.6651C73.9311 67.7211 73.634 67.8887 73.4171 68.1393C73.2002 68.3899 73.077 68.7079 73.0684 69.0392C73.248 69.1659 73.4528 69.2525 73.6688 69.2933Z" fill="#33133F"/>
</g>
<g style="mix-blend-mode:multiply" opacity="0.05">
<path d="M78.473 70.4536C78.473 70.4536 78.8021 70.3035 78.7559 70.6153C78.7097 70.9271 78.6 71.2619 78.3633 71.2562C78.4403 71.2055 78.5041 71.1371 78.5493 71.0568C78.5945 70.9764 78.6198 70.8864 78.6231 70.7943C78.6173 70.4825 78.2882 70.6615 78.473 70.4536Z" fill="#33133F"/>
</g>
<g style="mix-blend-mode:multiply" opacity="0.05">
<path d="M73.035 71.2621C73.035 71.2621 72.6828 71.1813 72.7868 71.4757C72.8907 71.7702 73.0639 72.0531 73.3006 72.0531C73.2147 72.0185 73.1384 71.9637 73.0781 71.8933C73.0178 71.823 72.9753 71.7392 72.9542 71.649C72.8965 71.3198 73.2602 71.4295 73.035 71.2621Z" fill="#33133F"/>
</g>
<path d="M77.3525 68.0519C77.3525 68.0519 71.5094 71.0542 71.7577 68.508C72.006 65.9618 73.4898 66.6258 73.4898 66.6258C73.4898 66.6258 72.3986 66.3255 72.8836 65.7944C73.3686 65.2632 74.1076 66.2967 76.3767 65.9214C78.6458 65.5461 79.1596 69.2182 78.2705 70.3268C78.282 70.321 76.8963 70.0438 77.3525 68.0519Z" fill="#202234"/>
<path d="M73.3568 68.629C73.3568 68.629 73.53 70.3611 73.1951 71.0309C72.7785 70.3967 72.5466 69.659 72.5254 68.9004C72.5716 67.8149 73.3568 68.629 73.3568 68.629Z" fill="#351E59"/>
<g style="mix-blend-mode:soft-light" opacity="0.25">
<path d="M72.2617 68.7446C73.9944 68.879 75.7263 68.4758 77.2214 67.5898C77.2214 67.5898 74.6521 69.6742 72.2617 68.7446Z" fill="#241442"/>
</g>
<g style="mix-blend-mode:soft-light" opacity="0.25">
<path d="M74.1484 68.0517C75.2675 68.1311 76.384 67.8651 77.3471 67.2896C77.3471 67.2896 75.69 68.6464 74.1484 68.0517Z" fill="#241442"/>
</g>
<g style="mix-blend-mode:soft-light" opacity="0.25">
<path d="M77.7282 67.1914C77.8433 67.7273 77.7909 68.2856 77.5781 68.7907C77.7248 68.5538 77.8146 68.2861 77.8407 68.0087C77.8667 67.7312 77.8282 67.4515 77.7282 67.1914Z" fill="#241442"/>
</g>
<g style="mix-blend-mode:soft-light" opacity="0.25">
<path d="M77.9375 67.2031C78.2704 67.9969 78.3491 68.8744 78.1627 69.7147C78.1627 69.7147 78.7458 68.1789 77.9375 67.2031Z" fill="#241442"/>
</g>
<g style="mix-blend-mode:soft-light" opacity="0.25">
<path d="M72.3301 67.3706C72.3301 67.3706 72.4744 66.7932 73.6754 66.62C73.6754 66.62 72.8959 66.21 73.3116 66.0426C73.7273 65.8752 74.7262 66.3659 75.2978 66.2274C75.8038 66.082 76.3334 66.0369 76.8567 66.0946C76.3505 66.0713 75.846 66.1683 75.3844 66.3775C74.9456 66.6835 73.9583 66.3775 73.9583 66.3775C73.9583 66.3775 74.4433 66.8163 73.9583 66.9548C73.4733 67.0934 72.9248 66.7701 72.3301 67.3706Z" fill="#241442"/>
</g>
<path d="M76.3895 76.0194C76.3895 76.0194 76.9668 78.2769 75.0499 77.7515C73.1331 77.2261 73.8952 76.0194 75.0499 75.5171C75.0955 75.5788 75.1267 75.6499 75.1412 75.7252C75.1557 75.8004 75.1531 75.878 75.1338 75.9522C75.1144 76.0264 75.0786 76.0953 75.0292 76.1539C74.9797 76.2125 74.9178 76.2592 74.8479 76.2908C75.0788 76.7411 76.3895 76.0194 76.3895 76.0194Z" fill="#5F98ED"/>
<path d="M76.4238 76.0137C76.4238 76.0137 76.4238 78.3232 78.156 77.3532C79.8881 76.3832 78.8199 75.3555 77.5786 75.1938C77.5488 75.2647 77.5354 75.3414 77.5395 75.4182C77.5436 75.495 77.5651 75.5698 77.6024 75.6371C77.6396 75.7043 77.6917 75.7623 77.7545 75.8065C77.8174 75.8508 77.8895 75.8801 77.9654 75.8925C77.8788 76.3717 76.4238 76.0137 76.4238 76.0137Z" fill="#5F98ED"/>
<path d="M64.2051 101.216C65.0466 101.735 65.967 102.113 66.9303 102.336L66.8783 101.99C65.9776 101.759 65.0827 101.499 64.2051 101.216Z" fill="url(#paint16_linear_10071_109588)"/>
<path d="M66.8574 101.99L66.9094 102.336C68.2932 102.658 69.7093 102.821 71.13 102.821C69.6915 102.624 68.2651 102.346 66.8574 101.99Z" fill="#BDDCFD"/>
<path d="M92.4348 99.3105C95.9857 97.6419 98.6763 94.6915 95.8991 89.6164C91.4937 81.5331 83.8262 77.4106 83.8262 77.4106C88.6934 80.7825 91.4591 90.8346 92.4348 99.3105Z" fill="url(#paint17_linear_10071_109588)"/>
<path d="M69.2577 80.4766C67.2946 82.711 63.559 87.5956 61.9827 94.0449C61.082 97.7516 62.2194 99.9514 64.2056 101.216C65.0832 101.51 65.9782 101.759 66.8789 101.99C65.8338 94.5703 65.9666 85.7365 69.2577 80.4766Z" fill="url(#paint18_linear_10071_109588)"/>
<path d="M76.1582 75.7367C76.3299 75.7024 76.5034 75.6773 76.6778 75.6616L76.1582 75.7367Z" fill="#BDDCFD"/>
<path d="M79.9229 103.029H80.1134L79.7785 100.494L79.6342 100.079L79.5938 100.523L79.9229 103.029Z" fill="#BDDCFD"/>
<path d="M76.7818 75.6499H76.6778C76.5034 75.6656 76.3299 75.6907 76.1582 75.725C76.2611 75.7367 76.3632 75.754 76.4642 75.7769C76.5675 75.7285 76.6736 75.6861 76.7818 75.6499Z" fill="#BDDCFD"/>
<path d="M132.394 73.0979L134.484 74.2411L132.394 75.3843L131.251 77.4686L130.114 75.3843L128.023 74.2411L130.114 73.0979L131.251 71.0078L132.394 73.0979Z" fill="url(#paint19_linear_10071_109588)"/>
<path d="M60.7825 71.7471V71.4007C60.7825 70.1882 61.1751 69.0912 62.8726 67.6015C64.0562 66.5392 64.2756 65.7308 64.2756 64.859C64.2886 64.5738 64.241 64.2892 64.136 64.0237C64.031 63.7583 63.8709 63.5181 63.6664 63.319C63.4618 63.1199 63.2174 62.9664 62.9492 62.8686C62.681 62.7708 62.3951 62.7309 62.1104 62.7516C60.5746 62.7516 59.8818 63.7216 59.6797 65.1304H57.5723C57.6531 63.7043 58.6 61.0079 62.1509 61.0137C65.4015 61.0137 66.4581 63.2481 66.4581 64.911C66.4581 66.4006 65.9789 67.3821 64.3853 68.8313C63.3287 69.7956 62.9881 70.5635 62.9881 71.5566V71.7471H60.7825ZM60.7825 76.3661V73.2079H62.9881V76.3199L60.7825 76.3661Z" fill="#BDDCFD"/>
<path opacity="0.21" d="M111.089 132.874C114.076 129.886 116.111 126.08 116.935 121.936C117.759 117.792 117.335 113.497 115.718 109.593C114.101 105.69 111.363 102.354 107.85 100.006C104.337 97.6591 100.207 96.4062 95.9821 96.4062C91.757 96.4063 87.6269 97.6591 84.1138 100.006C80.6008 102.354 77.8626 105.69 76.2456 109.593C74.6286 113.497 74.2054 117.792 75.0294 121.936C75.8534 126.08 77.8877 129.886 80.875 132.874C82.8553 134.864 85.2093 136.443 87.8019 137.521C90.3945 138.599 93.1744 139.154 95.9821 139.154C98.7897 139.154 101.57 138.599 104.162 137.521C106.755 136.443 109.109 134.864 111.089 132.874Z" fill="white"/>
<path d="M95.9849 139.797C90.8833 139.797 85.9397 138.027 81.9963 134.791C78.0529 131.554 75.3538 127.05 74.3589 122.047C73.3641 117.043 74.1349 111.85 76.5402 107.351C78.9455 102.852 82.8364 99.326 87.5498 97.3742C92.2633 95.4225 97.5076 95.1656 102.389 96.6471C107.271 98.1287 111.488 101.257 114.321 105.499C117.155 109.742 118.43 114.835 117.929 119.912C117.428 124.989 115.182 129.735 111.574 133.342C107.438 137.474 101.831 139.796 95.9849 139.797ZM95.9849 97.1229C91.1922 97.1178 86.5462 98.7751 82.8387 101.812C79.1313 104.849 76.5919 109.078 75.6535 113.778C74.715 118.478 75.4356 123.358 77.6925 127.586C79.9493 131.814 83.6026 135.128 88.0296 136.964C92.4567 138.8 97.3835 139.044 101.97 137.654C106.557 136.263 110.519 133.326 113.182 129.341C115.845 125.356 117.044 120.571 116.574 115.802C116.103 111.032 113.994 106.573 110.604 103.185C106.725 99.3094 101.468 97.1293 95.9849 97.1229Z" fill="#4C65BA"/>
<path d="M115.621 133.076C115.651 133.044 115.684 133.015 115.719 132.989C119.606 127.968 121.435 121.656 120.837 115.335C120.238 109.013 117.257 103.157 112.497 98.9541C107.737 94.7514 101.556 92.5179 95.2095 92.7069C88.8627 92.8959 82.8258 95.4934 78.3246 99.9718C73.8234 104.45 71.1954 110.474 70.9742 116.82C70.753 123.165 72.9552 129.357 77.1336 134.138C81.3121 138.919 87.1535 141.931 93.4717 142.561C99.7899 143.192 106.111 141.394 111.152 137.533L114.039 134.646L115.621 133.076ZM95.9902 139.121C91.0475 139.119 86.2584 137.403 82.439 134.266C78.6195 131.129 76.0061 126.765 75.044 121.916C74.0819 117.068 74.8307 112.037 77.1628 107.679C79.4948 103.321 83.2659 99.9062 87.8333 98.0171C92.4007 96.128 97.4818 95.8811 102.211 97.3185C106.94 98.7559 111.024 101.789 113.768 105.9C116.511 110.011 117.745 114.947 117.257 119.865C116.77 124.784 114.592 129.381 111.094 132.874C107.085 136.877 101.65 139.125 95.9844 139.121H95.9902Z" fill="#3E479B"/>
<path d="M95.9857 143.024C90.9972 143.017 86.1226 141.532 81.978 138.755C77.8334 135.979 74.6049 132.036 72.7003 127.426C70.7958 122.815 70.3007 117.743 71.2777 112.851C72.2547 107.959 74.6599 103.467 78.1894 99.9414C81.7188 96.416 86.2141 94.0159 91.1072 93.0445C96.0003 92.0731 101.071 92.574 105.68 94.4838C110.288 96.3936 114.227 99.6267 116.999 103.774C119.771 107.922 121.251 112.798 121.252 117.787C121.272 123.367 119.423 128.792 115.998 133.197L115.934 133.255L115.865 133.307L111.367 137.799C106.961 141.197 101.55 143.035 95.9857 143.024ZM95.9857 93.2255C92.085 93.2288 88.2412 94.1612 84.7724 95.9454C81.3037 97.7295 78.3098 100.314 76.0385 103.485C73.7672 106.657 72.2839 110.323 71.7113 114.182C71.1387 118.04 71.4934 121.98 72.7459 125.674C73.9984 129.368 76.1128 132.711 78.914 135.425C81.7151 138.14 85.1226 140.148 88.8542 141.284C92.5859 142.42 96.5344 142.651 100.373 141.957C104.212 141.264 107.83 139.666 110.928 137.297L115.386 132.851L115.484 132.77C118.803 128.489 120.598 123.222 120.582 117.804C120.571 111.288 117.975 105.041 113.364 100.436C108.753 95.8314 102.503 93.2443 95.9857 93.2428V93.2255ZM95.9857 139.462C90.9593 139.465 86.0874 137.724 82.2005 134.537C78.3136 131.35 75.6523 126.914 74.6703 121.984C73.6883 117.055 74.4464 111.937 76.8154 107.504C79.1843 103.071 83.0175 99.5963 87.6614 97.673C92.3053 95.7497 97.4726 95.4965 102.282 96.9566C107.092 98.4167 111.246 101.5 114.037 105.68C116.828 109.861 118.083 114.88 117.588 119.882C117.092 124.883 114.878 129.559 111.321 133.111C107.253 137.176 101.737 139.46 95.9857 139.462ZM95.9857 96.7879C91.1191 96.7879 86.4031 98.4755 82.6413 101.563C78.8795 104.651 76.3047 108.947 75.3558 113.72C74.4069 118.494 75.1424 123.448 77.4372 127.74C79.732 132.031 83.4439 135.394 87.9404 137.256C92.437 139.117 97.4399 139.362 102.097 137.948C106.753 136.534 110.776 133.55 113.478 129.502C116.181 125.455 117.396 120.596 116.918 115.753C116.439 110.91 114.296 106.383 110.853 102.943C106.909 99.0017 101.561 96.7879 95.9857 96.7879ZM95.9857 96.7879C91.1191 96.7879 86.4031 98.4755 82.6413 101.563C78.8795 104.651 76.3047 108.947 75.3558 113.72C74.4069 118.494 75.1424 123.448 77.4372 127.74C79.732 132.031 83.4439 135.394 87.9404 137.256C92.437 139.117 97.4399 139.362 102.097 137.948C106.753 136.534 110.776 133.55 113.478 129.502C116.181 125.455 117.396 120.596 116.918 115.753C116.439 110.91 114.296 106.383 110.853 102.943C106.909 99.0017 101.561 96.7879 95.9857 96.7879Z" fill="white"/>
<path d="M115.003 136.967L114.038 136.003C113.948 135.914 113.878 135.808 113.83 135.691C113.781 135.576 113.755 135.452 113.755 135.327C113.755 135.202 113.781 135.079 113.83 134.964C113.878 134.847 113.948 134.74 114.038 134.652L111.151 137.539L111.105 137.591C111.018 137.679 110.948 137.783 110.897 137.897C110.852 138.013 110.828 138.136 110.828 138.26C110.828 138.385 110.851 138.509 110.897 138.624C110.947 138.74 111.018 138.845 111.105 138.936L112.26 140.091C113.076 138.967 113.994 137.922 115.003 136.967Z" fill="#4C65BA"/>
<path d="M114.039 134.652C113.949 134.741 113.878 134.847 113.831 134.964C113.781 135.079 113.756 135.202 113.756 135.327C113.756 135.453 113.781 135.576 113.831 135.691C113.878 135.808 113.949 135.914 114.039 136.003L115.003 136.967C115.957 135.962 116.99 135.036 118.092 134.196L116.937 133.076C116.775 132.913 116.559 132.815 116.33 132.799C116.101 132.783 115.874 132.851 115.69 132.989C115.655 133.015 115.622 133.044 115.592 133.076L114.039 134.652Z" fill="#4C65BA"/>
<path opacity="0.43" d="M114.039 134.652C113.949 134.741 113.878 134.847 113.831 134.964C113.781 135.079 113.756 135.202 113.756 135.327C113.756 135.453 113.781 135.576 113.831 135.691C113.878 135.808 113.949 135.914 114.039 136.003L115.003 136.967C115.957 135.962 116.99 135.036 118.092 134.196L116.937 133.076C116.775 132.913 116.559 132.815 116.33 132.799C116.101 132.783 115.874 132.851 115.69 132.989C115.655 133.015 115.622 133.044 115.592 133.076L114.039 134.652Z" fill="#3E479B"/>
<path d="M134.918 150.137L118.625 133.971C118.561 133.907 118.371 133.971 118.094 134.179C116.993 135.02 115.96 135.947 115.005 136.95C114.003 137.912 113.089 138.961 112.274 140.085C112.147 140.299 112.095 140.443 112.152 140.507L128.446 156.673C128.867 157.101 129.37 157.441 129.924 157.672C130.473 157.9 131.061 158.019 131.656 158.024C132.257 158.023 132.853 157.903 133.408 157.671C133.962 157.439 134.466 157.1 134.889 156.673C135.75 155.803 136.232 154.629 136.232 153.405C136.232 152.182 135.75 151.007 134.889 150.137H134.918Z" fill="url(#paint20_linear_10071_109588)"/>
<path opacity="0.14" d="M134.917 150.137L118.623 133.97C118.387 133.734 116.383 135.524 114.668 137.29C113.207 138.797 133.144 158.445 134.917 156.644C135.781 155.778 136.266 154.605 136.266 153.382C136.266 152.159 135.781 150.985 134.917 150.12V150.137Z" fill="#3E479B"/>
<path d="M89.6801 126.43C89.4821 126.428 89.2863 126.389 89.1027 126.314C88.9166 126.234 88.7465 126.12 88.6004 125.98C88.4572 125.836 88.3435 125.665 88.2655 125.477C88.1893 125.294 88.1481 125.098 88.1443 124.9C88.1467 124.701 88.1879 124.505 88.2655 124.323C88.3407 124.137 88.4526 123.968 88.5946 123.826L93.8949 118.531L88.5831 113.243C88.2922 112.952 88.1282 112.557 88.127 112.146C88.1297 111.841 88.2222 111.543 88.3931 111.29C88.5639 111.037 88.8055 110.84 89.0876 110.724C89.3697 110.607 89.6798 110.577 89.9792 110.636C90.2787 110.694 90.5542 110.84 90.7713 111.054L96.0659 116.343L101.366 111.054C101.583 110.84 101.859 110.694 102.158 110.636C102.458 110.577 102.768 110.607 103.05 110.724C103.332 110.84 103.574 111.037 103.744 111.29C103.915 111.543 104.008 111.841 104.011 112.146C104.009 112.557 103.845 112.952 103.554 113.243L98.2599 118.531L103.572 123.814C103.717 123.957 103.831 124.128 103.907 124.317C103.985 124.499 104.026 124.696 104.028 124.894C104.023 125.303 103.86 125.695 103.572 125.985C103.428 126.129 103.257 126.242 103.069 126.32C102.887 126.397 102.69 126.437 102.492 126.436C102.294 126.436 102.098 126.397 101.915 126.32C101.727 126.243 101.556 126.129 101.412 125.985L96.1121 120.697L90.8175 125.985C90.6734 126.129 90.5028 126.242 90.3152 126.32C90.1329 126.399 89.9365 126.44 89.7378 126.442L89.6801 126.43Z" fill="url(#paint21_linear_10071_109588)"/>
</g>
<defs>
<linearGradient id="paint0_linear_10071_109588" x1="90.171" y1="158.827" x2="90.171" y2="-12.521" gradientUnits="userSpaceOnUse">
<stop stop-color="#FEFEFD"/>
<stop offset="1" stop-color="#EBF3FF"/>
</linearGradient>
<linearGradient id="paint1_linear_10071_109588" x1="90.1699" y1="152.187" x2="90.1699" y2="103.197" gradientUnits="userSpaceOnUse">
<stop stop-color="#FEFEFD"/>
<stop offset="0.84" stop-color="#EBF3FF"/>
</linearGradient>
<linearGradient id="paint2_linear_10071_109588" x1="22.3691" y1="92.8731" x2="32.1037" y2="92.8731" gradientUnits="userSpaceOnUse">
<stop stop-color="#5278FF"/>
<stop offset="1" stop-color="#30B8FC"/>
</linearGradient>
<linearGradient id="paint3_linear_10071_109588" x1="42.8204" y1="100.627" x2="108.324" y2="100.627" gradientUnits="userSpaceOnUse">
<stop stop-color="#8BB4F2"/>
<stop offset="1" stop-color="#CDDAFF"/>
</linearGradient>
<linearGradient id="paint4_linear_10071_109588" x1="8614.85" y1="19122.3" x2="5509.95" y2="18204.5" gradientUnits="userSpaceOnUse">
<stop stop-color="#FEFEFD"/>
<stop offset="1" stop-color="#EBF3FF"/>
</linearGradient>
<linearGradient id="paint5_linear_10071_109588" x1="94.5443" y1="45.3896" x2="94.046" y2="46.1814" gradientUnits="userSpaceOnUse">
<stop stop-color="#B0B0FF"/>
<stop offset="1" stop-color="white"/>
</linearGradient>
<linearGradient id="paint6_linear_10071_109588" x1="46.2194" y1="43.7358" x2="46.2179" y2="43.7398" gradientUnits="userSpaceOnUse">
<stop stop-color="#B0B0FF"/>
<stop offset="1" stop-color="white"/>
</linearGradient>
<linearGradient id="paint7_linear_10071_109588" x1="3580.1" y1="1103.03" x2="7624.74" y2="1103.03" gradientUnits="userSpaceOnUse">
<stop stop-color="#8BB4F2"/>
<stop offset="1" stop-color="#CDDAFF"/>
</linearGradient>
<linearGradient id="paint8_linear_10071_109588" x1="1107.39" y1="305.085" x2="1262.89" y2="1464.69" gradientUnits="userSpaceOnUse">
<stop stop-color="#8BB4F2"/>
<stop offset="1" stop-color="#CDDAFF"/>
</linearGradient>
<linearGradient id="paint9_linear_10071_109588" x1="967.728" y1="322.387" x2="1123.79" y2="1486.16" gradientUnits="userSpaceOnUse">
<stop stop-color="#8BB4F2"/>
<stop offset="1" stop-color="#CDDAFF"/>
</linearGradient>
<linearGradient id="paint10_linear_10071_109588" x1="821.787" y1="337.805" x2="977.281" y2="1497.41" gradientUnits="userSpaceOnUse">
<stop stop-color="#8BB4F2"/>
<stop offset="1" stop-color="#CDDAFF"/>
</linearGradient>
<linearGradient id="paint11_linear_10071_109588" x1="679.072" y1="355.669" x2="836.068" y2="1520.89" gradientUnits="userSpaceOnUse">
<stop stop-color="#8BB4F2"/>
<stop offset="1" stop-color="#CDDAFF"/>
</linearGradient>
<linearGradient id="paint12_linear_10071_109588" x1="681.145" y1="1447.47" x2="-981.861" y2="1567.71" gradientUnits="userSpaceOnUse">
<stop stop-color="#8BB4F2"/>
<stop offset="1" stop-color="#CDDAFF"/>
</linearGradient>
<linearGradient id="paint13_linear_10071_109588" x1="1469.32" y1="6112.93" x2="2239.79" y2="6112.93" gradientUnits="userSpaceOnUse">
<stop stop-color="#8BB4F2"/>
<stop offset="1" stop-color="#CDDAFF"/>
</linearGradient>
<linearGradient id="paint14_linear_10071_109588" x1="467.24" y1="5710.02" x2="496.182" y2="5710.02" gradientUnits="userSpaceOnUse">
<stop stop-color="#8BB4F2"/>
<stop offset="1" stop-color="#CDDAFF"/>
</linearGradient>
<linearGradient id="paint15_linear_10071_109588" x1="104.16" y1="26.1863" x2="112.48" y2="26.1863" gradientUnits="userSpaceOnUse">
<stop stop-color="#FF8E00"/>
<stop offset="1" stop-color="#FFCF01"/>
</linearGradient>
<linearGradient id="paint16_linear_10071_109588" x1="441.212" y1="173.005" x2="431.099" y2="296.082" gradientUnits="userSpaceOnUse">
<stop stop-color="#5278FF"/>
<stop offset="1" stop-color="#30B8FC"/>
</linearGradient>
<linearGradient id="paint17_linear_10071_109588" x1="2523.89" y1="2394.87" x2="1494.52" y2="3952.58" gradientUnits="userSpaceOnUse">
<stop stop-color="#5278FF"/>
<stop offset="1" stop-color="#30B8FC"/>
</linearGradient>
<linearGradient id="paint18_linear_10071_109588" x1="1320.19" y1="2154.52" x2="302.999" y2="3052.22" gradientUnits="userSpaceOnUse">
<stop stop-color="#5278FF"/>
<stop offset="1" stop-color="#30B8FC"/>
</linearGradient>
<linearGradient id="paint19_linear_10071_109588" x1="1510.25" y1="851.411" x2="1582.55" y2="851.411" gradientUnits="userSpaceOnUse">
<stop stop-color="#5278FF"/>
<stop offset="1" stop-color="#30B8FC"/>
</linearGradient>
<linearGradient id="paint20_linear_10071_109588" x1="5575.64" y1="4979.69" x2="5005.69" y2="6340.24" gradientUnits="userSpaceOnUse">
<stop stop-color="#5278FF"/>
<stop offset="1" stop-color="#30B8FC"/>
</linearGradient>
<linearGradient id="paint21_linear_10071_109588" x1="2609.86" y1="3570.89" x2="2609.86" y2="2738.75" gradientUnits="userSpaceOnUse">
<stop stop-color="#8BB4F2"/>
<stop offset="1" stop-color="#CDDAFF"/>
</linearGradient>
<clipPath id="clip0_10071_109588">
<rect width="180" height="180" fill="white"/>
</clipPath>
</defs>
</svg>
