<?xml version="1.0" standalone="no"?>
<!DOCTYPE svg PUBLIC "-//W3C//DTD SVG 20010904//EN"
 "http://www.w3.org/TR/2001/REC-SVG-20010904/DTD/svg10.dtd">
<svg version="1.0" xmlns="http://www.w3.org/2000/svg"
 width="652.000000pt" height="196.000000pt" viewBox="0 0 652.000000 196.000000"
 preserveAspectRatio="xMidYMid meet">

<g transform="translate(0.000000,196.000000) scale(0.100000,-0.100000)"
fill="#000000" stroke="none">
<path d="M485 1910 c-29 -46 -26 -63 6 -34 31 28 43 54 31 66 -7 7 -19 -4 -37
-32z"/>
<path d="M4055 1910 c-41 -42 -38 -54 5 -20 32 25 39 25 67 -2 35 -32 40 -14
7 26 -16 19 -31 35 -34 35 -3 1 -24 -17 -45 -39z"/>
<path d="M1248 1933 c-30 -5 -39 -23 -12 -23 14 0 16 -8 10 -52 -3 -29 -9
-104 -13 -165 -6 -111 -6 -113 15 -113 19 0 22 6 22 43 0 57 25 129 55 157 42
39 50 24 50 -91 0 -101 1 -104 23 -107 27 -4 62 23 62 47 0 11 -4 9 -16 -7
-30 -43 -37 -27 -30 68 8 108 0 130 -48 130 -35 0 -52 -14 -80 -65 l-16 -30 6
55 c3 30 9 79 13 108 6 36 5 52 -3 51 -6 -1 -23 -4 -38 -6z"/>
<path d="M1640 1927 c0 -7 14 -26 30 -42 33 -32 39 -19 13 26 -18 30 -43 39
-43 16z"/>
<path d="M3028 1933 c-30 -5 -39 -23 -12 -23 13 0 15 -7 11 -32 -3 -18 -9 -69
-12 -113 -3 -44 -8 -104 -11 -132 -5 -48 -3 -53 14 -53 16 0 21 9 27 55 9 72
53 159 83 163 31 5 35 -13 22 -105 -6 -44 -8 -87 -4 -96 9 -25 60 -22 78 5 23
32 19 48 -4 18 -30 -40 -40 -17 -29 70 12 97 1 130 -46 130 -34 0 -53 -15 -80
-65 l-17 -30 6 60 c4 33 9 81 12 108 4 26 3 46 -2 46 -5 -1 -21 -4 -36 -6z"/>
<path d="M5488 1933 c-30 -5 -39 -23 -12 -23 13 0 15 -7 11 -32 -3 -18 -9 -69
-12 -113 -3 -44 -8 -104 -11 -132 -5 -48 -3 -53 14 -53 16 0 21 9 27 55 9 72
53 159 83 163 31 5 35 -13 22 -105 -6 -44 -8 -87 -4 -96 9 -25 60 -22 78 5 23
32 19 48 -4 18 -30 -40 -40 -17 -29 70 12 97 1 130 -46 130 -34 0 -53 -15 -80
-65 l-17 -30 6 60 c4 33 9 81 12 108 4 26 3 46 -2 46 -5 -1 -21 -4 -36 -6z"/>
<path d="M5841 1916 c-16 -19 -6 -36 20 -36 15 0 20 6 17 22 -4 27 -21 33 -37
14z"/>
<path d="M26 1912 c-3 -5 3 -12 13 -15 16 -4 18 -13 14 -83 -7 -155 -14 -205
-29 -211 -35 -13 -7 -23 66 -23 122 0 170 27 170 97 0 35 -15 56 -55 77 -16 8
-24 15 -18 16 26 0 53 40 53 75 0 49 -32 67 -130 73 -46 3 -80 0 -84 -6z m152
-28 c48 -33 17 -108 -50 -120 l-38 -6 0 45 c0 90 32 120 88 81z m20 -158 c9
-9 16 -32 16 -52 0 -49 -31 -74 -90 -74 -50 0 -49 -1 -37 99 l6 53 45 -5 c24
-3 51 -12 60 -21z"/>
<path d="M6088 1889 c-36 -27 -36 -44 -1 -25 24 12 31 12 56 -1 40 -20 45 -9
11 21 -35 30 -32 30 -66 5z"/>
<path d="M432 1808 c-55 -27 -91 -152 -58 -203 22 -33 68 -34 101 0 14 13 26
32 26 42 1 10 5 0 8 -22 5 -32 11 -41 29 -43 27 -4 62 23 62 47 0 12 -6 9 -20
-9 -32 -42 -41 -17 -30 80 15 128 18 120 -42 119 -29 0 -63 -5 -76 -11z m86
-31 c7 -61 -50 -177 -88 -177 -49 0 -36 148 17 190 36 28 67 23 71 -13z"/>
<path d="M686 1798 c-23 -32 -19 -48 4 -18 31 41 42 16 30 -70 -14 -114 -13
-130 10 -130 16 0 20 7 20 35 0 73 54 185 90 185 26 0 28 -15 18 -108 -6 -45
-7 -89 -4 -97 9 -25 63 -19 82 10 9 14 14 28 11 31 -3 3 -10 -4 -17 -15 -6
-12 -17 -21 -26 -21 -12 0 -13 15 -8 95 8 106 1 125 -47 125 -20 0 -35 -9 -53
-33 -15 -19 -27 -40 -28 -48 0 -8 -4 6 -7 31 -5 39 -9 45 -33 48 -18 2 -31 -4
-42 -20z"/>
<path d="M1608 1797 c-38 -32 -58 -79 -58 -136 0 -57 17 -81 59 -81 33 0 54
15 75 55 l15 30 1 -42 c0 -41 1 -43 30 -43 21 0 35 8 46 25 9 14 14 28 11 31
-3 3 -10 -4 -17 -15 -6 -12 -18 -21 -27 -21 -16 0 -15 37 4 178 l6 42 -59 0
c-47 0 -65 -5 -86 -23z m99 -3 c8 -22 -26 -139 -49 -169 -22 -28 -53 -33 -62
-9 -9 24 -7 100 4 128 21 56 92 89 107 50z"/>
<path d="M1877 1802 c-9 -10 -17 -25 -17 -33 0 -8 6 -5 16 9 31 44 37 27 29
-88 -6 -105 -6 -110 13 -110 16 0 20 9 25 58 7 85 50 162 89 162 18 0 19 -7
16 -107 l-3 -108 32 -3 c27 -3 34 2 48 27 17 34 7 43 -13 11 -26 -42 -33 -22
-26 75 8 106 1 125 -46 125 -28 0 -78 -46 -81 -73 -1 -7 -5 6 -8 28 -5 34 -10
40 -32 43 -15 2 -32 -5 -42 -16z"/>
<path d="M2284 1801 c-41 -25 -69 -95 -61 -151 7 -56 23 -72 66 -68 27 2 40
11 58 37 l23 34 0 -29 c-1 -46 -20 -117 -37 -136 -23 -25 -73 -24 -80 2 -7 27
-43 27 -43 0 0 -38 80 -53 130 -23 41 24 59 73 70 198 15 168 19 155 -42 155
-35 0 -64 -7 -84 -19z m90 -41 c0 -61 -46 -160 -73 -160 -60 0 -52 150 10 194
13 9 33 15 44 14 17 -3 20 -10 19 -48z"/>
<path d="M2761 1799 c-48 -45 -62 -113 -37 -173 24 -59 103 -67 149 -16 15 17
25 36 21 42 -4 7 -10 4 -17 -8 -23 -44 -72 -58 -101 -29 -38 38 -26 151 19
181 32 21 65 10 65 -22 0 -14 6 -24 14 -24 24 0 29 19 12 45 -22 34 -91 35
-125 4z"/>
<path d="M3325 1790 c-9 -16 -11 -30 -6 -30 5 0 13 9 16 20 3 11 13 20 21 20
12 0 13 -16 8 -98 -6 -82 -4 -99 9 -110 27 -23 69 -10 94 27 19 28 23 30 23
13 0 -37 11 -52 41 -52 22 0 32 7 44 30 17 33 7 41 -13 10 -33 -54 -40 11 -15
163 5 32 3 37 -15 37 -16 0 -21 -9 -27 -55 -8 -70 -53 -159 -81 -163 -30 -4
-34 15 -23 98 14 96 7 120 -31 120 -23 0 -33 -7 -45 -30z"/>
<path d="M3661 1788 c-8 -21 -8 -35 -1 -42 7 -7 10 -3 10 11 0 29 20 40 36 19
12 -17 46 -136 58 -205 5 -29 1 -38 -30 -69 -33 -33 -37 -35 -49 -19 -18 24
-37 21 -33 -5 2 -17 11 -24 31 -26 39 -5 94 54 142 152 53 107 61 216 15 216
-28 0 -34 -17 -9 -31 19 -10 21 -17 16 -59 -3 -27 -16 -68 -28 -91 l-21 -43
-23 91 c-30 118 -39 133 -74 133 -24 0 -31 -6 -40 -32z"/>
<path d="M4018 1793 c-36 -38 -52 -102 -38 -153 12 -46 33 -60 87 -60 30 0 46
7 68 30 35 37 27 51 -8 16 -46 -46 -107 -26 -107 34 0 24 5 30 33 35 50 11 87
34 99 60 28 62 -82 92 -134 38z m92 2 c17 -20 3 -53 -30 -70 -48 -25 -64 -20
-56 17 12 58 58 87 86 53z"/>
<path d="M4267 1802 c-9 -10 -17 -25 -17 -33 0 -8 6 -5 16 9 31 44 37 27 29
-88 -6 -105 -6 -110 13 -110 16 0 20 9 25 58 7 85 50 162 89 162 18 0 19 -7
16 -107 l-3 -108 32 -3 c27 -3 34 2 48 27 17 34 7 43 -13 11 -26 -42 -33 -22
-26 75 8 106 1 125 -46 125 -28 0 -78 -46 -81 -73 -1 -7 -5 6 -8 28 -5 34 -10
40 -32 43 -15 2 -32 -5 -42 -16z"/>
<path d="M4796 1798 c-18 -25 -20 -38 -7 -38 5 0 11 9 14 20 3 11 13 20 22 20
18 0 18 -12 -2 -172 -5 -43 -4 -48 14 -48 17 0 21 9 26 52 8 65 51 155 78 163
36 12 42 -7 30 -98 -6 -46 -9 -92 -5 -101 9 -24 60 -21 78 6 23 32 19 48 -4
18 -32 -41 -42 -16 -30 72 14 98 4 128 -43 128 -36 0 -53 -14 -81 -65 -11 -19
-15 -22 -11 -8 3 12 3 33 -1 47 -8 34 -56 36 -78 4z"/>
<path d="M5206 1799 c-39 -30 -56 -71 -56 -132 0 -59 19 -87 57 -87 38 0 55
12 75 54 l19 41 -6 -42 c-13 -104 -17 -122 -36 -142 -26 -28 -75 -28 -82 -1
-7 26 -37 26 -37 0 0 -27 36 -43 82 -37 44 6 75 29 90 67 11 28 38 281 31 293
-2 4 -28 7 -57 7 -39 0 -61 -6 -80 -21z m96 -39 c-3 -56 -50 -154 -76 -158
-26 -5 -36 15 -36 76 0 84 37 135 95 129 17 -2 20 -8 17 -47z"/>
<path d="M5785 1790 c-18 -35 -11 -39 15 -7 10 12 22 19 26 15 4 -5 3 -47 -3
-95 -6 -52 -6 -95 -1 -105 12 -25 64 -24 78 1 17 33 11 45 -9 20 -33 -40 -43
-15 -30 74 15 100 8 127 -31 127 -23 0 -33 -7 -45 -30z"/>
<path d="M6051 1804 c-51 -36 -69 -149 -30 -198 17 -21 29 -26 65 -26 37 0 51
6 76 30 39 39 29 51 -12 16 -53 -44 -93 -32 -106 30 -5 29 -4 30 44 42 27 7
59 20 71 28 23 17 29 62 9 82 -17 17 -90 15 -117 -4z m73 0 c22 -8 20 -47 -2
-67 -10 -9 -33 -20 -52 -23 -29 -6 -32 -5 -27 10 4 10 7 23 7 30 0 14 37 56
50 56 4 0 15 -3 24 -6z"/>
<path d="M6297 1802 c-9 -10 -17 -25 -17 -33 0 -8 6 -5 16 9 24 34 34 26 34
-26 0 -82 -21 -266 -32 -279 -8 -10 0 -13 38 -13 44 1 47 2 31 14 -14 11 -17
25 -15 57 3 41 5 43 38 47 48 5 87 28 104 60 46 90 24 182 -44 182 -30 0 -69
-37 -71 -69 -1 -9 -5 2 -8 24 -5 34 -10 40 -32 43 -15 2 -32 -5 -42 -16z m175
-37 c5 -17 3 -52 -3 -82 -11 -58 -44 -93 -85 -93 -21 0 -24 5 -24 35 0 39 24
117 48 152 21 33 53 27 64 -12z"/>
<path d="M6083 1524 c-8 -21 13 -42 28 -27 13 13 5 43 -11 43 -6 0 -13 -7 -17
-16z"/>
<path d="M5527 1293 c-4 -3 -7 -289 -7 -635 l0 -628 104 0 104 0 7 48 c4 26 9
51 12 55 3 4 25 -11 50 -33 73 -68 121 -85 243 -85 136 0 195 23 284 105 72
68 109 131 131 221 53 228 -48 456 -242 547 -52 24 -69 27 -168 27 -96 0 -116
-3 -159 -24 -27 -13 -69 -43 -93 -66 l-43 -42 0 259 0 258 -108 0 c-60 0 -112
-3 -115 -7z m522 -574 c108 -23 180 -110 189 -227 11 -169 -84 -281 -241 -282
-109 0 -181 43 -223 135 -27 56 -32 151 -12 216 22 75 99 144 178 160 51 10
54 10 109 -2z"/>
<path d="M1216 900 c-145 -46 -252 -166 -286 -321 -18 -80 -9 -230 18 -299 62
-157 201 -255 382 -267 188 -13 346 72 424 230 l27 52 -113 3 -112 3 -31 -35
c-78 -89 -213 -98 -304 -20 -47 40 -66 73 -76 127 l-7 37 330 0 329 0 6 43
c16 117 -44 281 -131 357 -89 79 -177 110 -312 109 -55 0 -106 -7 -144 -19z
m277 -196 c40 -29 69 -74 81 -126 l6 -28 -215 0 c-214 0 -215 0 -215 22 0 34
47 104 85 128 53 33 84 40 154 36 50 -3 72 -10 104 -32z"/>
<path d="M2392 906 c-58 -19 -119 -63 -153 -109 l-28 -38 -6 48 c-13 101 -3
93 -115 93 l-100 0 0 -435 0 -435 114 0 115 0 3 273 c3 256 4 274 25 312 45
84 107 119 202 113 78 -4 119 -28 147 -85 17 -34 19 -68 22 -325 l3 -288 114
0 115 0 0 268 c0 147 -5 296 -11 332 -20 127 -79 214 -175 261 -61 29 -204 37
-272 15z"/>
<path d="M4746 900 c-145 -46 -252 -166 -286 -321 -18 -80 -9 -230 18 -299 62
-157 201 -255 382 -267 188 -13 346 72 424 230 l27 52 -113 3 -112 3 -31 -35
c-78 -89 -213 -98 -304 -20 -47 40 -66 73 -76 127 l-7 37 330 0 329 0 6 43
c16 117 -44 281 -131 357 -89 79 -177 110 -312 109 -55 0 -106 -7 -144 -19z
m277 -196 c40 -29 69 -74 81 -126 l6 -28 -215 0 c-214 0 -215 0 -215 22 0 34
47 104 85 128 53 33 84 40 154 36 50 -3 72 -10 104 -32z"/>
<path d="M50 810 l0 -90 215 0 c118 0 215 -4 215 -8 0 -4 -97 -118 -215 -252
l-215 -244 0 -93 0 -93 355 0 356 0 -3 93 -3 92 -226 5 -226 5 223 250 224
250 0 87 0 88 -350 0 -350 0 0 -90z"/>
<path d="M2983 888 c2 -7 60 -203 128 -435 l123 -423 118 0 c102 0 117 2 122
18 3 9 41 145 86 302 45 157 83 293 86 303 3 10 8 17 10 14 4 -3 184 -626 184
-634 0 -2 53 -3 118 -3 l117 0 124 423 c68 232 126 428 129 435 3 10 -20 12
-108 10 l-113 -3 -72 -295 c-39 -162 -74 -301 -76 -309 -3 -7 -38 105 -78 250
-41 145 -80 285 -88 312 l-14 47 -124 0 -124 0 -14 -47 c-8 -27 -47 -167 -88
-312 -40 -145 -75 -258 -77 -251 -3 7 -37 146 -76 309 l-71 296 -114 3 c-88 2
-112 0 -108 -10z"/>
</g>
</svg>
